<svg width="108" height="125" viewBox="0 0 108 125" fill="none" xmlns="http://www.w3.org/2000/svg">
<rect x="23" y="22" width="60" height="69" fill="#ED0D0D"/>
<ellipse cx="53" cy="21.5" rx="30" ry="21.5" fill="#ED0D0D"/>
<rect x="20" y="80" width="67" height="11" fill="#C10C0C"/>
<rect x="34" y="42" width="2" height="83" fill="#C4C4C4"/>
<rect x="70" y="47" width="2" height="78" fill="#C4C4C4"/>
<rect x="36" y="42" width="12" height="1" fill="#C4C4C4"/>
<rect x="40" y="47" width="30" height="1" fill="#C4C4C4"/>
<rect x="41" y="46" width="28" height="1" fill="#2E4CEB"/>
<rect x="41" y="45" width="28" height="1" fill="#2FE641"/>
<path d="M57.8579 5.65084C57.6651 5.45318 57.3485 5.44927 57.1508 5.64211L53.9298 8.78457C53.7322 8.97741 53.7283 9.29397 53.9211 9.49163C54.1139 9.68929 54.4305 9.69319 54.6282 9.50036L57.4913 6.70705L60.2846 9.57018C60.4774 9.76783 60.794 9.77174 60.9916 9.5789C61.1893 9.38607 61.1932 9.06951 61.0004 8.87185L57.8579 5.65084ZM57.5875 39.4222L58 6.00617L57 5.99383L56.5876 39.4098L57.5875 39.4222Z" fill="white"/>
<path d="M76.5 11.8022C76.3907 11.5486 76.0966 11.4315 75.843 11.5408L71.7101 13.321C71.4565 13.4303 71.3394 13.7244 71.4487 13.978C71.5579 14.2317 71.8521 14.3487 72.1057 14.2395L75.7794 12.657L77.3618 16.3307C77.4711 16.5843 77.7652 16.7013 78.0188 16.5921C78.2724 16.4828 78.3895 16.1887 78.2802 15.9351L76.5 11.8022ZM64.9735 41.1689L76.5054 12.1848L75.5762 11.8152L64.0444 40.7992L64.9735 41.1689Z" fill="white"/>
<path d="M39.0527 10.5506C38.8046 10.4294 38.5052 10.5323 38.384 10.7804L36.4085 14.8236C36.2873 15.0717 36.3901 15.3711 36.6383 15.4923C36.8864 15.6135 37.1858 15.5107 37.307 15.2626L39.063 11.6686L42.6569 13.4246C42.905 13.5458 43.2044 13.4429 43.3257 13.1948C43.4469 12.9467 43.344 12.6473 43.0959 12.5261L39.0527 10.5506ZM49.5564 40.6735L39.3061 10.8374L38.3604 11.1623L48.6106 40.9984L49.5564 40.6735Z" fill="white"/>
<circle cx="41" cy="42" r="2" fill="#FAFF00"/>
<path d="M40 42H42" stroke="black" stroke-width="0.5"/>
<circle cx="35" cy="53" r="2" fill="#FAFF00"/>
<path d="M34 53H36" stroke="black" stroke-width="0.5"/>
<circle cx="35" cy="46" r="2" fill="#FAFF00"/>
<path d="M34 46H36" stroke="black" stroke-width="0.5"/>
<circle cx="71" cy="51" r="2" fill="#FAFF00"/>
<path d="M70 51H72" stroke="black" stroke-width="0.5"/>
<circle cx="71" cy="57" r="2" fill="#FAFF00"/>
<path d="M70 57H72" stroke="black" stroke-width="0.5"/>
<circle cx="71" cy="63" r="2" fill="#FAFF00"/>
<path d="M70 63H72" stroke="black" stroke-width="0.5"/>
<path d="M1.59082 31.3101H4.62305V32H0.742676V25.6016H1.59082V31.3101ZM6.34131 32H5.52832V27.2451H6.34131V32ZM5.4624 25.9839C5.4624 25.8521 5.50195 25.7407 5.58105 25.6499C5.66309 25.5591 5.7832 25.5137 5.94141 25.5137C6.09961 25.5137 6.21973 25.5591 6.30176 25.6499C6.38379 25.7407 6.4248 25.8521 6.4248 25.9839C6.4248 26.1157 6.38379 26.2256 6.30176 26.3135C6.21973 26.4014 6.09961 26.4453 5.94141 26.4453C5.7832 26.4453 5.66309 26.4014 5.58105 26.3135C5.50195 26.2256 5.4624 26.1157 5.4624 25.9839ZM7.45312 29.583C7.45312 28.8418 7.62451 28.2529 7.96729 27.8164C8.31006 27.377 8.76416 27.1572 9.32959 27.1572C9.90967 27.1572 10.3623 27.3623 10.6875 27.7725L10.7271 27.2451H11.4697V31.8857C11.4697 32.501 11.2866 32.9858 10.9204 33.3403C10.5571 33.6948 10.0679 33.8721 9.45264 33.8721C9.10986 33.8721 8.77441 33.7988 8.44629 33.6523C8.11816 33.5059 7.86768 33.3052 7.69482 33.0503L8.1167 32.5625C8.46533 32.9932 8.8916 33.2085 9.39551 33.2085C9.79102 33.2085 10.0986 33.0972 10.3184 32.8745C10.541 32.6519 10.6523 32.3384 10.6523 31.9341V31.5254C10.3271 31.9004 9.8833 32.0879 9.3208 32.0879C8.76416 32.0879 8.31299 31.8638 7.96729 31.4155C7.62451 30.9673 7.45312 30.3564 7.45312 29.583ZM8.27051 29.6753C8.27051 30.2114 8.38037 30.6333 8.6001 30.9409C8.81982 31.2456 9.12744 31.3979 9.52295 31.3979C10.0356 31.3979 10.4121 31.165 10.6523 30.6992V28.5283C10.4033 28.0742 10.0298 27.8472 9.53174 27.8472C9.13623 27.8472 8.82715 28.001 8.60449 28.3086C8.38184 28.6162 8.27051 29.0718 8.27051 29.6753ZM13.5132 27.8208C13.8735 27.3784 14.3423 27.1572 14.9194 27.1572C15.9243 27.1572 16.4312 27.7241 16.4399 28.8579V32H15.627V28.8535C15.624 28.5107 15.5449 28.2573 15.3896 28.0933C15.2373 27.9292 14.9985 27.8472 14.6733 27.8472C14.4097 27.8472 14.1782 27.9175 13.979 28.0581C13.7798 28.1987 13.6245 28.3833 13.5132 28.6118V32H12.7002V25.25H13.5132V27.8208ZM18.7603 26.0938V27.2451H19.6479V27.8735H18.7603V30.8223C18.7603 31.0127 18.7998 31.1562 18.8789 31.2529C18.958 31.3467 19.0928 31.3936 19.2832 31.3936C19.377 31.3936 19.5059 31.376 19.6699 31.3408V32C19.4561 32.0586 19.248 32.0879 19.0459 32.0879C18.6826 32.0879 18.4087 31.978 18.2241 31.7583C18.0396 31.5386 17.9473 31.2266 17.9473 30.8223V27.8735H17.0815V27.2451H17.9473V26.0938H18.7603Z" fill="black"/>
<path d="M41.416 25.2774C41.5692 25.0476 41.5071 24.7372 41.2774 24.584L37.5331 22.0878C37.3034 21.9346 36.9929 21.9967 36.8397 22.2265C36.6866 22.4563 36.7487 22.7667 36.9784 22.9199L40.3066 25.1387L38.0878 28.4669C37.9346 28.6966 37.9967 29.0071 38.2265 29.1603C38.4563 29.3134 38.7667 29.2513 38.9199 29.0216L41.416 25.2774ZM21.0981 29.4903L41.0981 25.4903L40.9019 24.5097L20.9019 28.5097L21.0981 29.4903Z" fill="black"/>
<path d="M83.7427 48V41.6016H85.5488C86.1055 41.6016 86.5977 41.7246 87.0254 41.9707C87.4531 42.2168 87.7827 42.5669 88.0142 43.021C88.2485 43.4751 88.3672 43.9966 88.3701 44.5854V44.9941C88.3701 45.5977 88.2529 46.1265 88.0186 46.5806C87.7871 47.0347 87.4546 47.3833 87.021 47.6265C86.5903 47.8696 86.0879 47.9941 85.5137 48H83.7427ZM84.5864 42.2959V47.3101H85.4741C86.1245 47.3101 86.6299 47.1079 86.9902 46.7036C87.3535 46.2993 87.5352 45.7236 87.5352 44.9766V44.603C87.5352 43.8765 87.3638 43.3125 87.021 42.9111C86.6812 42.5068 86.1978 42.3018 85.5708 42.2959H84.5864ZM90.4048 48H89.5918V43.2451H90.4048V48ZM89.5259 41.9839C89.5259 41.8521 89.5654 41.7407 89.6445 41.6499C89.7266 41.5591 89.8467 41.5137 90.0049 41.5137C90.1631 41.5137 90.2832 41.5591 90.3652 41.6499C90.4473 41.7407 90.4883 41.8521 90.4883 41.9839C90.4883 42.1157 90.4473 42.2256 90.3652 42.3135C90.2832 42.4014 90.1631 42.4453 90.0049 42.4453C89.8467 42.4453 89.7266 42.4014 89.6445 42.3135C89.5654 42.2256 89.5259 42.1157 89.5259 41.9839ZM91.4946 45.5786C91.4946 45.1128 91.5854 44.6938 91.7671 44.3218C91.9517 43.9497 92.2065 43.6626 92.5317 43.4604C92.8599 43.2583 93.2334 43.1572 93.6523 43.1572C94.2998 43.1572 94.8228 43.3813 95.2212 43.8296C95.6226 44.2778 95.8232 44.874 95.8232 45.6182V45.6753C95.8232 46.1382 95.7339 46.5542 95.5552 46.9233C95.3794 47.2896 95.126 47.5752 94.7949 47.7803C94.4668 47.9854 94.0889 48.0879 93.6611 48.0879C93.0166 48.0879 92.4937 47.8638 92.0923 47.4155C91.6938 46.9673 91.4946 46.374 91.4946 45.6357V45.5786ZM92.312 45.6753C92.312 46.2026 92.4336 46.626 92.6768 46.9453C92.9229 47.2646 93.251 47.4243 93.6611 47.4243C94.0742 47.4243 94.4023 47.2632 94.6455 46.9409C94.8887 46.6157 95.0103 46.1616 95.0103 45.5786C95.0103 45.0571 94.8857 44.6353 94.6367 44.313C94.3906 43.9878 94.0625 43.8252 93.6523 43.8252C93.251 43.8252 92.9272 43.9849 92.6812 44.3042C92.4351 44.6235 92.312 45.0806 92.312 45.6753ZM96.645 45.583C96.645 44.8535 96.8179 44.2676 97.1636 43.8252C97.5093 43.3799 97.9619 43.1572 98.5215 43.1572C99.0781 43.1572 99.519 43.3477 99.8442 43.7285V41.25H100.657V48H99.9102L99.8706 47.4902C99.5454 47.8887 99.0928 48.0879 98.5127 48.0879C97.9619 48.0879 97.5122 47.8623 97.1636 47.4111C96.8179 46.96 96.645 46.3711 96.645 45.6445V45.583ZM97.458 45.6753C97.458 46.2144 97.5693 46.6362 97.792 46.9409C98.0146 47.2456 98.3223 47.3979 98.7148 47.3979C99.2305 47.3979 99.6069 47.1665 99.8442 46.7036V44.5195C99.6011 44.0713 99.2275 43.8472 98.7236 43.8472C98.3252 43.8472 98.0146 44.001 97.792 44.3086C97.5693 44.6162 97.458 45.0718 97.458 45.6753ZM103.896 48.0879C103.251 48.0879 102.727 47.877 102.323 47.4551C101.918 47.0303 101.716 46.4634 101.716 45.7544V45.605C101.716 45.1333 101.806 44.7129 101.984 44.3438C102.166 43.9717 102.418 43.6816 102.74 43.4736C103.065 43.2627 103.417 43.1572 103.795 43.1572C104.413 43.1572 104.894 43.3608 105.236 43.7681C105.579 44.1753 105.75 44.7583 105.75 45.5171V45.8555H102.529C102.541 46.3242 102.677 46.7036 102.938 46.9937C103.202 47.2808 103.536 47.4243 103.94 47.4243C104.227 47.4243 104.47 47.3657 104.669 47.2485C104.869 47.1313 105.043 46.9761 105.192 46.7827L105.689 47.1694C105.291 47.7817 104.693 48.0879 103.896 48.0879ZM103.795 43.8252C103.467 43.8252 103.191 43.9453 102.969 44.1855C102.746 44.4229 102.608 44.7568 102.556 45.1875H104.938V45.126C104.914 44.7129 104.803 44.3936 104.604 44.168C104.404 43.9395 104.135 43.8252 103.795 43.8252Z" fill="black"/>
<path d="M70.1358 45.6812C69.9518 45.8984 69.9656 46.2172 70.1667 46.3933L73.4444 49.2628C73.6455 49.4389 73.9578 49.4056 74.1418 49.1884C74.3259 48.9712 74.312 48.6524 74.1109 48.4763L71.1974 45.9256L73.8635 42.7795C74.0475 42.5623 74.0337 42.2435 73.8325 42.0674C73.6314 41.8913 73.3191 41.9246 73.1351 42.1418L70.1358 45.6812ZM82.733 44.1888L70.4781 45.4965L70.5219 46.5035L82.7767 45.1959L82.733 44.1888Z" fill="black"/>
</svg>
