<svg width="363" height="262" viewBox="0 0 363 262" fill="none" xmlns="http://www.w3.org/2000/svg">
<rect x="111" y="213.5" width="60" height="48" fill="#FBB910"/>
<rect x="171" y="213.5" width="123" height="48" fill="#3B3838"/>
<line x1="141.5" y1="228.5" x2="141.5" y2="245.5" stroke="white"/>
<line x1="133" y1="237" x2="150" y2="237" stroke="white"/>
<line x1="255" y1="237" x2="272" y2="237" stroke="white"/>
<path d="M111 239.5H100.5V180.5H177" stroke="black"/>
<path d="M294 239H302.5V180.5H227" stroke="black"/>
<path d="M210.5 197.5C214.876 197.5 219.073 195.709 222.167 192.521C225.262 189.333 227 185.009 227 180.5C227 175.991 225.262 171.667 222.167 168.479C219.073 165.291 214.876 163.5 210.5 163.5L210.5 180.5L210.5 197.5Z" fill="#C4C4C4"/>
<path d="M193.5 197.5C189.124 197.5 184.927 195.709 181.833 192.521C178.738 189.333 177 185.009 177 180.5C177 175.991 178.738 171.667 181.833 168.479C184.927 165.291 189.124 163.5 193.5 163.5L193.5 180.5L193.5 197.5Z" fill="#C4C4C4"/>
<path d="M186 180.5L175 137H153.5L131.5 61H175H212.5L231 135H222H212.5H206.5L218 180.5" stroke="black"/>
<path d="M96.5 212L100.5 208L104 212" stroke="black"/>
<path d="M306.5 208L302.5 212L299 208" stroke="black"/>
<path d="M177.5 157.5L179.5 154.5L182.5 156" stroke="black"/>
<path d="M214 153L212 156L209 154.5" stroke="black"/>
<path d="M146.5 121.5L148 118.5L151 120" stroke="black"/>
<path d="M173 59L175.5 61L173 63" stroke="black"/>
<path d="M215.5 81.5L218 82.5L219.5 80.5" stroke="black"/>
<rect y="79" width="100" height="35" fill="#C4C4C4"/>
<rect x="65" y="79" width="35" height="35" fill="#1296F5"/>
<path d="M82.4889 102.608C81.5529 102.608 80.6529 102.458 79.7889 102.158C78.9369 101.858 78.2769 101.462 77.8089 100.97L78.3309 99.944C78.7869 100.4 79.3929 100.772 80.1489 101.06C80.9049 101.336 81.6849 101.474 82.4889 101.474C83.6169 101.474 84.4629 101.27 85.0269 100.862C85.5909 100.442 85.8729 99.902 85.8729 99.242C85.8729 98.738 85.7169 98.336 85.4049 98.036C85.1049 97.736 84.7329 97.508 84.2889 97.352C83.8449 97.184 83.2269 97.004 82.4349 96.812C81.4869 96.572 80.7309 96.344 80.1669 96.128C79.6029 95.9 79.1169 95.558 78.7089 95.102C78.3129 94.646 78.1149 94.028 78.1149 93.248C78.1149 92.612 78.2829 92.036 78.6189 91.52C78.9549 90.992 79.4709 90.572 80.1669 90.26C80.8629 89.948 81.7269 89.792 82.7589 89.792C83.4789 89.792 84.1809 89.894 84.8649 90.098C85.5609 90.29 86.1609 90.56 86.6649 90.908L86.2149 91.97C85.6869 91.622 85.1229 91.364 84.5229 91.196C83.9229 91.016 83.3349 90.926 82.7589 90.926C81.6549 90.926 80.8209 91.142 80.2569 91.574C79.7049 91.994 79.4289 92.54 79.4289 93.212C79.4289 93.716 79.5789 94.124 79.8789 94.436C80.1909 94.736 80.5749 94.97 81.0309 95.138C81.4989 95.294 82.1229 95.468 82.9029 95.66C83.8269 95.888 84.5709 96.116 85.1349 96.344C85.7109 96.56 86.1969 96.896 86.5929 97.352C86.9889 97.796 87.1869 98.402 87.1869 99.17C87.1869 99.806 87.0129 100.388 86.6649 100.916C86.3289 101.432 85.8069 101.846 85.0989 102.158C84.3909 102.458 83.5209 102.608 82.4889 102.608Z" fill="white"/>
<rect x="263" y="82" width="100" height="35" fill="#C4C4C4"/>
<rect x="263" y="82" width="35" height="35" fill="#E13535"/>
<path d="M285.761 91.9V104.5H284.663L276.563 94.276V104.5H275.231V91.9H276.329L284.447 102.124V91.9H285.761Z" fill="white"/>
<line x1="100.003" y1="91.5" x2="263.003" y2="92.5126" stroke="url(#paint0_linear)"/>
<line x1="100.003" y1="99.5" x2="263.003" y2="100.513" stroke="url(#paint1_linear)"/>
<line x1="100.003" y1="107.5" x2="263.003" y2="108.513" stroke="url(#paint2_linear)"/>
<path d="M183.5 89.5L180.5 92L183.5 94.5" stroke="#FA0E13" stroke-opacity="0.52"/>
<path d="M184 97L181 99.5L184 102" stroke="#FA0E13" stroke-opacity="0.52"/>
<path d="M184 105L181 107.5L184 110" stroke="#FA0E13" stroke-opacity="0.52"/>
<path d="M151.5 100C151.5 100.195 151.382 100.461 150.983 100.775C150.59 101.085 149.991 101.385 149.206 101.647C147.641 102.169 145.446 102.5 143 102.5C140.554 102.5 138.359 102.169 136.794 101.647C136.009 101.385 135.41 101.085 135.017 100.775C134.618 100.461 134.5 100.195 134.5 100C134.5 99.8047 134.618 99.539 135.017 99.225C135.41 98.9154 136.009 98.6148 136.794 98.353C138.359 97.8313 140.554 97.5 143 97.5C145.446 97.5 147.641 97.8313 149.206 98.353C149.991 98.6148 150.59 98.9154 150.983 99.225C151.382 99.539 151.5 99.8047 151.5 100Z" stroke="black"/>
<path d="M157.5 100C157.5 100.471 157.214 101 156.512 101.554C155.815 102.102 154.777 102.618 153.448 103.061C150.797 103.945 147.103 104.5 143 104.5C138.897 104.5 135.203 103.945 132.552 103.061C131.223 102.618 130.185 102.102 129.488 101.554C128.786 101 128.5 100.471 128.5 100C128.5 99.5285 128.786 98.9998 129.488 98.4465C130.185 97.8976 131.223 97.3815 132.552 96.9388C135.203 96.0551 138.897 95.5 143 95.5C147.103 95.5 150.797 96.0551 153.448 96.9388C154.777 97.3815 155.815 97.8976 156.512 98.4465C157.214 98.9998 157.5 99.5285 157.5 100Z" stroke="black"/>
<path d="M163.5 100C163.5 100.748 163.046 101.539 162.04 102.332C161.04 103.12 159.562 103.852 157.691 104.475C153.954 105.721 148.76 106.5 143 106.5C137.24 106.5 132.046 105.721 128.309 104.475C126.438 103.852 124.96 103.12 123.96 102.332C122.954 101.539 122.5 100.748 122.5 100C122.5 99.2524 122.954 98.4605 123.96 97.668C124.96 96.8799 126.438 96.1483 128.309 95.5246C132.046 94.279 137.24 93.5 143 93.5C148.76 93.5 153.954 94.279 157.691 95.5246C159.562 96.1483 161.04 96.8799 162.04 97.668C163.046 98.4605 163.5 99.2524 163.5 100Z" stroke="black"/>
<path d="M157 103.5H159.5L158.5 105.5" stroke="black"/>
<path d="M148 100.5H151L150 102.5M153 102H155.5L154.5 104" stroke="black"/>
<path d="M230.5 100C230.5 100.195 230.382 100.461 229.983 100.775C229.59 101.085 228.991 101.385 228.206 101.647C226.641 102.169 224.446 102.5 222 102.5C219.554 102.5 217.359 102.169 215.794 101.647C215.009 101.385 214.41 101.085 214.017 100.775C213.618 100.461 213.5 100.195 213.5 100C213.5 99.8047 213.618 99.539 214.017 99.225C214.41 98.9154 215.009 98.6148 215.794 98.353C217.359 97.8313 219.554 97.5 222 97.5C224.446 97.5 226.641 97.8313 228.206 98.353C228.991 98.6148 229.59 98.9154 229.983 99.225C230.382 99.539 230.5 99.8047 230.5 100Z" stroke="black"/>
<path d="M236.5 100C236.5 100.471 236.214 101 235.512 101.554C234.815 102.102 233.777 102.618 232.448 103.061C229.797 103.945 226.103 104.5 222 104.5C217.897 104.5 214.203 103.945 211.552 103.061C210.223 102.618 209.185 102.102 208.488 101.554C207.786 101 207.5 100.471 207.5 100C207.5 99.5285 207.786 98.9998 208.488 98.4465C209.185 97.8976 210.223 97.3815 211.552 96.9388C214.203 96.0551 217.897 95.5 222 95.5C226.103 95.5 229.797 96.0551 232.448 96.9388C233.777 97.3815 234.815 97.8976 235.512 98.4465C236.214 98.9998 236.5 99.5285 236.5 100Z" stroke="black"/>
<path d="M242.5 100C242.5 100.748 242.046 101.539 241.04 102.332C240.04 103.12 238.562 103.852 236.691 104.475C232.954 105.721 227.76 106.5 222 106.5C216.24 106.5 211.046 105.721 207.309 104.475C205.438 103.852 203.96 103.12 202.96 102.332C201.954 101.539 201.5 100.748 201.5 100C201.5 99.2524 201.954 98.4605 202.96 97.668C203.96 96.8799 205.438 96.1483 207.309 95.5246C211.046 94.279 216.24 93.5 222 93.5C227.76 93.5 232.954 94.279 236.691 95.5246C238.562 96.1483 240.04 96.8799 241.04 97.668C242.046 98.4605 242.5 99.2524 242.5 100Z" stroke="black"/>
<path d="M205 102H203L204.5 104" stroke="black"/>
<path d="M210 101H208L209.5 103" stroke="black"/>
<path d="M217 101H215L216.5 103" stroke="black"/>
<path d="M202.502 58.9526C202.476 59.2275 202.678 59.4716 202.953 59.4978L207.432 59.9244C207.707 59.9506 207.951 59.7489 207.977 59.474C208.004 59.1991 207.802 58.9551 207.527 58.9289L203.545 58.5497L203.924 54.5677C203.951 54.2928 203.749 54.0487 203.474 54.0225C203.199 53.9963 202.955 54.198 202.929 54.4729L202.502 58.9526ZM225.682 39.6145L202.682 58.6145L203.318 59.3855L226.318 40.3855L225.682 39.6145Z" fill="black"/>
<path d="M233.383 42L231.943 39.975C231.781 39.993 231.613 40.002 231.439 40.002H229.747V42H229.081V35.7H231.439C232.243 35.7 232.873 35.892 233.329 36.276C233.785 36.66 234.013 37.188 234.013 37.86C234.013 38.352 233.887 38.769 233.635 39.111C233.389 39.447 233.035 39.69 232.573 39.84L234.112 42H233.383ZM231.421 39.435C232.045 39.435 232.522 39.297 232.852 39.021C233.182 38.745 233.347 38.358 233.347 37.86C233.347 37.35 233.182 36.96 232.852 36.69C232.522 36.414 232.045 36.276 231.421 36.276H229.747V39.435H231.421ZM237.385 42.045C236.929 42.045 236.518 41.943 236.152 41.739C235.786 41.529 235.498 41.241 235.288 40.875C235.078 40.509 234.973 40.095 234.973 39.633C234.973 39.171 235.078 38.757 235.288 38.391C235.498 38.025 235.786 37.74 236.152 37.536C236.518 37.332 236.929 37.23 237.385 37.23C237.841 37.23 238.252 37.332 238.618 37.536C238.984 37.74 239.269 38.025 239.473 38.391C239.683 38.757 239.788 39.171 239.788 39.633C239.788 40.095 239.683 40.509 239.473 40.875C239.269 41.241 238.984 41.529 238.618 41.739C238.252 41.943 237.841 42.045 237.385 42.045ZM237.385 41.478C237.721 41.478 238.021 41.403 238.285 41.253C238.555 41.097 238.765 40.878 238.915 40.596C239.065 40.314 239.14 39.993 239.14 39.633C239.14 39.273 239.065 38.952 238.915 38.67C238.765 38.388 238.555 38.172 238.285 38.022C238.021 37.866 237.721 37.788 237.385 37.788C237.049 37.788 236.746 37.866 236.476 38.022C236.212 38.172 236.002 38.388 235.846 38.67C235.696 38.952 235.621 39.273 235.621 39.633C235.621 39.993 235.696 40.314 235.846 40.596C236.002 40.878 236.212 41.097 236.476 41.253C236.746 41.403 237.049 41.478 237.385 41.478ZM243.585 41.712C243.465 41.82 243.315 41.904 243.135 41.964C242.961 42.018 242.778 42.045 242.586 42.045C242.142 42.045 241.8 41.925 241.56 41.685C241.32 41.445 241.2 41.106 241.2 40.668V37.806H240.354V37.266H241.2V36.231H241.839V37.266H243.279V37.806H241.839V40.632C241.839 40.914 241.908 41.13 242.046 41.28C242.19 41.424 242.394 41.496 242.658 41.496C242.79 41.496 242.916 41.475 243.036 41.433C243.162 41.391 243.27 41.331 243.36 41.253L243.585 41.712ZM246.516 42.045C246.06 42.045 245.649 41.943 245.283 41.739C244.917 41.529 244.629 41.241 244.419 40.875C244.209 40.509 244.104 40.095 244.104 39.633C244.104 39.171 244.209 38.757 244.419 38.391C244.629 38.025 244.917 37.74 245.283 37.536C245.649 37.332 246.06 37.23 246.516 37.23C246.972 37.23 247.383 37.332 247.749 37.536C248.115 37.74 248.4 38.025 248.604 38.391C248.814 38.757 248.919 39.171 248.919 39.633C248.919 40.095 248.814 40.509 248.604 40.875C248.4 41.241 248.115 41.529 247.749 41.739C247.383 41.943 246.972 42.045 246.516 42.045ZM246.516 41.478C246.852 41.478 247.152 41.403 247.416 41.253C247.686 41.097 247.896 40.878 248.046 40.596C248.196 40.314 248.271 39.993 248.271 39.633C248.271 39.273 248.196 38.952 248.046 38.67C247.896 38.388 247.686 38.172 247.416 38.022C247.152 37.866 246.852 37.788 246.516 37.788C246.18 37.788 245.877 37.866 245.607 38.022C245.343 38.172 245.133 38.388 244.977 38.67C244.827 38.952 244.752 39.273 244.752 39.633C244.752 39.993 244.827 40.314 244.977 40.596C245.133 40.878 245.343 41.097 245.607 41.253C245.877 41.403 246.18 41.478 246.516 41.478ZM250.836 38.193C250.986 37.875 251.208 37.635 251.502 37.473C251.802 37.311 252.171 37.23 252.609 37.23V37.851L252.456 37.842C251.958 37.842 251.568 37.995 251.286 38.301C251.004 38.607 250.863 39.036 250.863 39.588V42H250.224V37.266H250.836V38.193Z" fill="black"/>
<path d="M145.622 94.3275C145.803 94.5361 146.119 94.5587 146.327 94.3778L149.728 91.4307C149.937 91.2498 149.959 90.934 149.778 90.7253C149.598 90.5167 149.282 90.4941 149.073 90.675L146.05 93.2947L143.431 90.2719C143.25 90.0633 142.934 90.0407 142.725 90.2216C142.517 90.4024 142.494 90.7182 142.675 90.9269L145.622 94.3275ZM149.501 37.9644L145.501 93.9644L146.499 94.0356L150.499 38.0356L149.501 37.9644Z" fill="black"/>
<path d="M219.047 95.4977C219.322 95.4716 219.524 95.2275 219.498 94.9526L219.071 90.4729C219.045 90.198 218.801 89.9963 218.526 90.0225C218.251 90.0487 218.049 90.2928 218.076 90.5677L218.455 94.5497L214.473 94.9289C214.198 94.9551 213.996 95.1991 214.023 95.474C214.049 95.7489 214.293 95.9506 214.568 95.9244L219.047 95.4977ZM149.682 38.3855L218.682 95.3855L219.318 94.6145L150.318 37.6145L149.682 38.3855Z" fill="black"/>
<path d="M136.541 24.424V25H132.086V18.7H136.406V19.276H132.752V21.517H136.01V22.084H132.752V24.424H136.541ZM137.971 18.322H138.61V25H137.971V18.322ZM144.51 22.831H140.55C140.586 23.323 140.775 23.722 141.117 24.028C141.459 24.328 141.891 24.478 142.413 24.478C142.707 24.478 142.977 24.427 143.223 24.325C143.469 24.217 143.682 24.061 143.862 23.857L144.222 24.271C144.012 24.523 143.748 24.715 143.43 24.847C143.118 24.979 142.773 25.045 142.395 25.045C141.909 25.045 141.477 24.943 141.099 24.739C140.727 24.529 140.436 24.241 140.226 23.875C140.016 23.509 139.911 23.095 139.911 22.633C139.911 22.171 140.01 21.757 140.208 21.391C140.412 21.025 140.688 20.74 141.036 20.536C141.39 20.332 141.786 20.23 142.224 20.23C142.662 20.23 143.055 20.332 143.403 20.536C143.751 20.74 144.024 21.025 144.222 21.391C144.42 21.751 144.519 22.165 144.519 22.633L144.51 22.831ZM142.224 20.779C141.768 20.779 141.384 20.926 141.072 21.22C140.766 21.508 140.592 21.886 140.55 22.354H143.907C143.865 21.886 143.688 21.508 143.376 21.22C143.07 20.926 142.686 20.779 142.224 20.779ZM147.782 25.045C147.314 25.045 146.894 24.943 146.522 24.739C146.156 24.535 145.868 24.25 145.658 23.884C145.448 23.512 145.343 23.095 145.343 22.633C145.343 22.171 145.448 21.757 145.658 21.391C145.868 21.025 146.156 20.74 146.522 20.536C146.894 20.332 147.314 20.23 147.782 20.23C148.19 20.23 148.553 20.311 148.871 20.473C149.195 20.629 149.45 20.86 149.636 21.166L149.159 21.49C149.003 21.256 148.805 21.082 148.565 20.968C148.325 20.848 148.064 20.788 147.782 20.788C147.44 20.788 147.131 20.866 146.855 21.022C146.585 21.172 146.372 21.388 146.216 21.67C146.066 21.952 145.991 22.273 145.991 22.633C145.991 22.999 146.066 23.323 146.216 23.605C146.372 23.881 146.585 24.097 146.855 24.253C147.131 24.403 147.44 24.478 147.782 24.478C148.064 24.478 148.325 24.421 148.565 24.307C148.805 24.193 149.003 24.019 149.159 23.785L149.636 24.109C149.45 24.415 149.195 24.649 148.871 24.811C148.547 24.967 148.184 25.045 147.782 25.045ZM153.437 24.712C153.317 24.82 153.167 24.904 152.987 24.964C152.813 25.018 152.63 25.045 152.438 25.045C151.994 25.045 151.652 24.925 151.412 24.685C151.172 24.445 151.052 24.106 151.052 23.668V20.806H150.206V20.266H151.052V19.231H151.691V20.266H153.131V20.806H151.691V23.632C151.691 23.914 151.76 24.13 151.898 24.28C152.042 24.424 152.246 24.496 152.51 24.496C152.642 24.496 152.768 24.475 152.888 24.433C153.014 24.391 153.122 24.331 153.212 24.253L153.437 24.712ZM155.212 21.193C155.362 20.875 155.584 20.635 155.878 20.473C156.178 20.311 156.547 20.23 156.985 20.23V20.851L156.832 20.842C156.334 20.842 155.944 20.995 155.662 21.301C155.38 21.607 155.239 22.036 155.239 22.588V25H154.6V20.266H155.212V21.193ZM160.033 25.045C159.577 25.045 159.166 24.943 158.8 24.739C158.434 24.529 158.146 24.241 157.936 23.875C157.726 23.509 157.621 23.095 157.621 22.633C157.621 22.171 157.726 21.757 157.936 21.391C158.146 21.025 158.434 20.74 158.8 20.536C159.166 20.332 159.577 20.23 160.033 20.23C160.489 20.23 160.9 20.332 161.266 20.536C161.632 20.74 161.917 21.025 162.121 21.391C162.331 21.757 162.436 22.171 162.436 22.633C162.436 23.095 162.331 23.509 162.121 23.875C161.917 24.241 161.632 24.529 161.266 24.739C160.9 24.943 160.489 25.045 160.033 25.045ZM160.033 24.478C160.369 24.478 160.669 24.403 160.933 24.253C161.203 24.097 161.413 23.878 161.563 23.596C161.713 23.314 161.788 22.993 161.788 22.633C161.788 22.273 161.713 21.952 161.563 21.67C161.413 21.388 161.203 21.172 160.933 21.022C160.669 20.866 160.369 20.788 160.033 20.788C159.697 20.788 159.394 20.866 159.124 21.022C158.86 21.172 158.65 21.388 158.494 21.67C158.344 21.952 158.269 22.273 158.269 22.633C158.269 22.993 158.344 23.314 158.494 23.596C158.65 23.878 158.86 24.097 159.124 24.253C159.394 24.403 159.697 24.478 160.033 24.478ZM166.153 20.23C166.747 20.23 167.218 20.404 167.566 20.752C167.92 21.094 168.097 21.595 168.097 22.255V25H167.458V22.318C167.458 21.826 167.335 21.451 167.089 21.193C166.843 20.935 166.492 20.806 166.036 20.806C165.526 20.806 165.121 20.959 164.821 21.265C164.527 21.565 164.38 21.982 164.38 22.516V25H163.741V20.266H164.353V21.139C164.527 20.851 164.767 20.629 165.073 20.473C165.385 20.311 165.745 20.23 166.153 20.23ZM121.815 29.7V36H121.176V30.96L118.701 35.199H118.386L115.911 30.987V36H115.272V29.7H115.821L118.557 34.371L121.266 29.7H121.815ZM125.389 31.23C126.007 31.23 126.481 31.386 126.811 31.698C127.141 32.004 127.306 32.46 127.306 33.066V36H126.694V35.262C126.55 35.508 126.337 35.7 126.055 35.838C125.779 35.976 125.449 36.045 125.065 36.045C124.537 36.045 124.117 35.919 123.805 35.667C123.493 35.415 123.337 35.082 123.337 34.668C123.337 34.266 123.481 33.942 123.769 33.696C124.063 33.45 124.528 33.327 125.164 33.327H126.667V33.039C126.667 32.631 126.553 32.322 126.325 32.112C126.097 31.896 125.764 31.788 125.326 31.788C125.026 31.788 124.738 31.839 124.462 31.941C124.186 32.037 123.949 32.172 123.751 32.346L123.463 31.869C123.703 31.665 123.991 31.509 124.327 31.401C124.663 31.287 125.017 31.23 125.389 31.23ZM125.164 35.541C125.524 35.541 125.833 35.46 126.091 35.298C126.349 35.13 126.541 34.89 126.667 34.578V33.804H125.182C124.372 33.804 123.967 34.086 123.967 34.65C123.967 34.926 124.072 35.145 124.282 35.307C124.492 35.463 124.786 35.541 125.164 35.541ZM133.442 31.266V35.424C133.442 36.228 133.244 36.822 132.848 37.206C132.458 37.596 131.867 37.791 131.075 37.791C130.637 37.791 130.22 37.725 129.824 37.593C129.434 37.467 129.116 37.29 128.87 37.062L129.194 36.576C129.422 36.78 129.698 36.939 130.022 37.053C130.352 37.167 130.697 37.224 131.057 37.224C131.657 37.224 132.098 37.083 132.38 36.801C132.662 36.525 132.803 36.093 132.803 35.505V34.902C132.605 35.202 132.344 35.43 132.02 35.586C131.702 35.742 131.348 35.82 130.958 35.82C130.514 35.82 130.109 35.724 129.743 35.532C129.383 35.334 129.098 35.061 128.888 34.713C128.684 34.359 128.582 33.96 128.582 33.516C128.582 33.072 128.684 32.676 128.888 32.328C129.098 31.98 129.383 31.71 129.743 31.518C130.103 31.326 130.508 31.23 130.958 31.23C131.36 31.23 131.723 31.311 132.047 31.473C132.371 31.635 132.632 31.869 132.83 32.175V31.266H133.442ZM131.021 35.253C131.363 35.253 131.672 35.181 131.948 35.037C132.224 34.887 132.437 34.68 132.587 34.416C132.743 34.152 132.821 33.852 132.821 33.516C132.821 33.18 132.743 32.883 132.587 32.625C132.437 32.361 132.224 32.157 131.948 32.013C131.678 31.863 131.369 31.788 131.021 31.788C130.679 31.788 130.37 31.86 130.094 32.004C129.824 32.148 129.611 32.352 129.455 32.616C129.305 32.88 129.23 33.18 129.23 33.516C129.23 33.852 129.305 34.152 129.455 34.416C129.611 34.68 129.824 34.887 130.094 35.037C130.37 35.181 130.679 35.253 131.021 35.253ZM137.641 31.23C138.235 31.23 138.706 31.404 139.054 31.752C139.408 32.094 139.585 32.595 139.585 33.255V36H138.946V33.318C138.946 32.826 138.823 32.451 138.577 32.193C138.331 31.935 137.98 31.806 137.524 31.806C137.014 31.806 136.609 31.959 136.309 32.265C136.015 32.565 135.868 32.982 135.868 33.516V36H135.229V31.266H135.841V32.139C136.015 31.851 136.255 31.629 136.561 31.473C136.873 31.311 137.233 31.23 137.641 31.23ZM145.459 33.831H141.499C141.535 34.323 141.724 34.722 142.066 35.028C142.408 35.328 142.84 35.478 143.362 35.478C143.656 35.478 143.926 35.427 144.172 35.325C144.418 35.217 144.631 35.061 144.811 34.857L145.171 35.271C144.961 35.523 144.697 35.715 144.379 35.847C144.067 35.979 143.722 36.045 143.344 36.045C142.858 36.045 142.426 35.943 142.048 35.739C141.676 35.529 141.385 35.241 141.175 34.875C140.965 34.509 140.86 34.095 140.86 33.633C140.86 33.171 140.959 32.757 141.157 32.391C141.361 32.025 141.637 31.74 141.985 31.536C142.339 31.332 142.735 31.23 143.173 31.23C143.611 31.23 144.004 31.332 144.352 31.536C144.7 31.74 144.973 32.025 145.171 32.391C145.369 32.751 145.468 33.165 145.468 33.633L145.459 33.831ZM143.173 31.779C142.717 31.779 142.333 31.926 142.021 32.22C141.715 32.508 141.541 32.886 141.499 33.354H144.856C144.814 32.886 144.637 32.508 144.325 32.22C144.019 31.926 143.635 31.779 143.173 31.779ZM149.262 35.712C149.142 35.82 148.992 35.904 148.812 35.964C148.638 36.018 148.455 36.045 148.263 36.045C147.819 36.045 147.477 35.925 147.237 35.685C146.997 35.445 146.877 35.106 146.877 34.668V31.806H146.031V31.266H146.877V30.231H147.516V31.266H148.956V31.806H147.516V34.632C147.516 34.914 147.585 35.13 147.723 35.28C147.867 35.424 148.071 35.496 148.335 35.496C148.467 35.496 148.593 35.475 148.713 35.433C148.839 35.391 148.947 35.331 149.037 35.253L149.262 35.712ZM150.425 31.266H151.064V36H150.425V31.266ZM150.749 30.231C150.617 30.231 150.506 30.186 150.416 30.096C150.326 30.006 150.281 29.898 150.281 29.772C150.281 29.652 150.326 29.547 150.416 29.457C150.506 29.367 150.617 29.322 150.749 29.322C150.881 29.322 150.992 29.367 151.082 29.457C151.172 29.541 151.217 29.643 151.217 29.763C151.217 29.895 151.172 30.006 151.082 30.096C150.992 30.186 150.881 30.231 150.749 30.231ZM154.804 36.045C154.336 36.045 153.916 35.943 153.544 35.739C153.178 35.535 152.89 35.25 152.68 34.884C152.47 34.512 152.365 34.095 152.365 33.633C152.365 33.171 152.47 32.757 152.68 32.391C152.89 32.025 153.178 31.74 153.544 31.536C153.916 31.332 154.336 31.23 154.804 31.23C155.212 31.23 155.575 31.311 155.893 31.473C156.217 31.629 156.472 31.86 156.658 32.166L156.181 32.49C156.025 32.256 155.827 32.082 155.587 31.968C155.347 31.848 155.086 31.788 154.804 31.788C154.462 31.788 154.153 31.866 153.877 32.022C153.607 32.172 153.394 32.388 153.238 32.67C153.088 32.952 153.013 33.273 153.013 33.633C153.013 33.999 153.088 34.323 153.238 34.605C153.394 34.881 153.607 35.097 153.877 35.253C154.153 35.403 154.462 35.478 154.804 35.478C155.086 35.478 155.347 35.421 155.587 35.307C155.827 35.193 156.025 35.019 156.181 34.785L156.658 35.109C156.472 35.415 156.217 35.649 155.893 35.811C155.569 35.967 155.206 36.045 154.804 36.045ZM161.07 30.276V32.751H164.328V33.327H161.07V36H160.404V29.7H164.724V30.276H161.07ZM165.876 31.266H166.515V36H165.876V31.266ZM166.2 30.231C166.068 30.231 165.957 30.186 165.867 30.096C165.777 30.006 165.732 29.898 165.732 29.772C165.732 29.652 165.777 29.547 165.867 29.457C165.957 29.367 166.068 29.322 166.2 29.322C166.332 29.322 166.443 29.367 166.533 29.457C166.623 29.541 166.668 29.643 166.668 29.763C166.668 29.895 166.623 30.006 166.533 30.096C166.443 30.186 166.332 30.231 166.2 30.231ZM172.415 33.831H168.455C168.491 34.323 168.68 34.722 169.022 35.028C169.364 35.328 169.796 35.478 170.318 35.478C170.612 35.478 170.882 35.427 171.128 35.325C171.374 35.217 171.587 35.061 171.767 34.857L172.127 35.271C171.917 35.523 171.653 35.715 171.335 35.847C171.023 35.979 170.678 36.045 170.3 36.045C169.814 36.045 169.382 35.943 169.004 35.739C168.632 35.529 168.341 35.241 168.131 34.875C167.921 34.509 167.816 34.095 167.816 33.633C167.816 33.171 167.915 32.757 168.113 32.391C168.317 32.025 168.593 31.74 168.941 31.536C169.295 31.332 169.691 31.23 170.129 31.23C170.567 31.23 170.96 31.332 171.308 31.536C171.656 31.74 171.929 32.025 172.127 32.391C172.325 32.751 172.424 33.165 172.424 33.633L172.415 33.831ZM170.129 31.779C169.673 31.779 169.289 31.926 168.977 32.22C168.671 32.508 168.497 32.886 168.455 33.354H171.812C171.77 32.886 171.593 32.508 171.281 32.22C170.975 31.926 170.591 31.779 170.129 31.779ZM173.725 29.322H174.364V36H173.725V29.322ZM180.462 29.322V36H179.85V35.064C179.658 35.382 179.403 35.625 179.085 35.793C178.773 35.961 178.419 36.045 178.023 36.045C177.579 36.045 177.177 35.943 176.817 35.739C176.457 35.535 176.175 35.25 175.971 34.884C175.767 34.518 175.665 34.101 175.665 33.633C175.665 33.165 175.767 32.748 175.971 32.382C176.175 32.016 176.457 31.734 176.817 31.536C177.177 31.332 177.579 31.23 178.023 31.23C178.407 31.23 178.752 31.311 179.058 31.473C179.37 31.629 179.625 31.86 179.823 32.166V29.322H180.462ZM178.077 35.478C178.407 35.478 178.704 35.403 178.968 35.253C179.238 35.097 179.448 34.878 179.598 34.596C179.754 34.314 179.832 33.993 179.832 33.633C179.832 33.273 179.754 32.952 179.598 32.67C179.448 32.388 179.238 32.172 178.968 32.022C178.704 31.866 178.407 31.788 178.077 31.788C177.741 31.788 177.438 31.866 177.168 32.022C176.904 32.172 176.694 32.388 176.538 32.67C176.388 32.952 176.313 33.273 176.313 33.633C176.313 33.993 176.388 34.314 176.538 34.596C176.694 34.878 176.904 35.097 177.168 35.253C177.438 35.403 177.741 35.478 178.077 35.478ZM183.511 36.045C183.127 36.045 182.758 35.991 182.404 35.883C182.056 35.769 181.783 35.628 181.585 35.46L181.873 34.956C182.071 35.112 182.32 35.241 182.62 35.343C182.92 35.439 183.232 35.487 183.556 35.487C183.988 35.487 184.306 35.421 184.51 35.289C184.72 35.151 184.825 34.959 184.825 34.713C184.825 34.539 184.768 34.404 184.654 34.308C184.54 34.206 184.396 34.131 184.222 34.083C184.048 34.029 183.817 33.978 183.529 33.93C183.145 33.858 182.836 33.786 182.602 33.714C182.368 33.636 182.167 33.507 181.999 33.327C181.837 33.147 181.756 32.898 181.756 32.58C181.756 32.184 181.921 31.86 182.251 31.608C182.581 31.356 183.04 31.23 183.628 31.23C183.934 31.23 184.24 31.272 184.546 31.356C184.852 31.434 185.104 31.539 185.302 31.671L185.023 32.184C184.633 31.914 184.168 31.779 183.628 31.779C183.22 31.779 182.911 31.851 182.701 31.995C182.497 32.139 182.395 32.328 182.395 32.562C182.395 32.742 182.452 32.886 182.566 32.994C182.686 33.102 182.833 33.183 183.007 33.237C183.181 33.285 183.421 33.336 183.727 33.39C184.105 33.462 184.408 33.534 184.636 33.606C184.864 33.678 185.059 33.801 185.221 33.975C185.383 34.149 185.464 34.389 185.464 34.695C185.464 35.109 185.29 35.439 184.942 35.685C184.6 35.925 184.123 36.045 183.511 36.045Z" fill="black"/>
<path d="M139.491 109.906C139.44 109.635 139.178 109.457 138.906 109.509L134.486 110.351C134.215 110.403 134.037 110.664 134.088 110.936C134.14 111.207 134.402 111.385 134.673 111.333L138.602 110.585L139.351 114.514C139.403 114.785 139.664 114.963 139.936 114.912C140.207 114.86 140.385 114.598 140.333 114.327L139.491 109.906ZM122.413 135.281L139.413 110.281L138.587 109.719L121.587 134.719L122.413 135.281Z" fill="black"/>
<path d="M88.2233 124.7V131H87.5843V125.96L85.1093 130.199H84.7943L82.3193 125.987V131H81.6803V124.7H82.2293L84.9653 129.371L87.6743 124.7H88.2233ZM91.797 126.23C92.415 126.23 92.889 126.386 93.219 126.698C93.549 127.004 93.714 127.46 93.714 128.066V131H93.102V130.262C92.958 130.508 92.745 130.7 92.463 130.838C92.187 130.976 91.857 131.045 91.473 131.045C90.945 131.045 90.525 130.919 90.213 130.667C89.901 130.415 89.745 130.082 89.745 129.668C89.745 129.266 89.889 128.942 90.177 128.696C90.471 128.45 90.936 128.327 91.572 128.327H93.075V128.039C93.075 127.631 92.961 127.322 92.733 127.112C92.505 126.896 92.172 126.788 91.734 126.788C91.434 126.788 91.146 126.839 90.87 126.941C90.594 127.037 90.357 127.172 90.159 127.346L89.871 126.869C90.111 126.665 90.399 126.509 90.735 126.401C91.071 126.287 91.425 126.23 91.797 126.23ZM91.572 130.541C91.932 130.541 92.241 130.46 92.499 130.298C92.757 130.13 92.949 129.89 93.075 129.578V128.804H91.59C90.78 128.804 90.375 129.086 90.375 129.65C90.375 129.926 90.48 130.145 90.69 130.307C90.9 130.463 91.194 130.541 91.572 130.541ZM99.8502 126.266V130.424C99.8502 131.228 99.6522 131.822 99.2562 132.206C98.8662 132.596 98.2752 132.791 97.4832 132.791C97.0452 132.791 96.6282 132.725 96.2322 132.593C95.8422 132.467 95.5242 132.29 95.2782 132.062L95.6022 131.576C95.8302 131.78 96.1062 131.939 96.4302 132.053C96.7602 132.167 97.1052 132.224 97.4652 132.224C98.0652 132.224 98.5062 132.083 98.7882 131.801C99.0702 131.525 99.2112 131.093 99.2112 130.505V129.902C99.0132 130.202 98.7522 130.43 98.4282 130.586C98.1102 130.742 97.7562 130.82 97.3662 130.82C96.9222 130.82 96.5172 130.724 96.1512 130.532C95.7912 130.334 95.5062 130.061 95.2962 129.713C95.0922 129.359 94.9902 128.96 94.9902 128.516C94.9902 128.072 95.0922 127.676 95.2962 127.328C95.5062 126.98 95.7912 126.71 96.1512 126.518C96.5112 126.326 96.9162 126.23 97.3662 126.23C97.7682 126.23 98.1312 126.311 98.4552 126.473C98.7792 126.635 99.0402 126.869 99.2382 127.175V126.266H99.8502ZM97.4292 130.253C97.7712 130.253 98.0802 130.181 98.3562 130.037C98.6322 129.887 98.8452 129.68 98.9952 129.416C99.1512 129.152 99.2292 128.852 99.2292 128.516C99.2292 128.18 99.1512 127.883 98.9952 127.625C98.8452 127.361 98.6322 127.157 98.3562 127.013C98.0862 126.863 97.7772 126.788 97.4292 126.788C97.0872 126.788 96.7782 126.86 96.5022 127.004C96.2322 127.148 96.0192 127.352 95.8632 127.616C95.7132 127.88 95.6382 128.18 95.6382 128.516C95.6382 128.852 95.7132 129.152 95.8632 129.416C96.0192 129.68 96.2322 129.887 96.5022 130.037C96.7782 130.181 97.0872 130.253 97.4292 130.253ZM104.049 126.23C104.643 126.23 105.114 126.404 105.462 126.752C105.816 127.094 105.993 127.595 105.993 128.255V131H105.354V128.318C105.354 127.826 105.231 127.451 104.985 127.193C104.739 126.935 104.388 126.806 103.932 126.806C103.422 126.806 103.017 126.959 102.717 127.265C102.423 127.565 102.276 127.982 102.276 128.516V131H101.637V126.266H102.249V127.139C102.423 126.851 102.663 126.629 102.969 126.473C103.281 126.311 103.641 126.23 104.049 126.23ZM111.867 128.831H107.907C107.943 129.323 108.132 129.722 108.474 130.028C108.816 130.328 109.248 130.478 109.77 130.478C110.064 130.478 110.334 130.427 110.58 130.325C110.826 130.217 111.039 130.061 111.219 129.857L111.579 130.271C111.369 130.523 111.105 130.715 110.787 130.847C110.475 130.979 110.13 131.045 109.752 131.045C109.266 131.045 108.834 130.943 108.456 130.739C108.084 130.529 107.793 130.241 107.583 129.875C107.373 129.509 107.268 129.095 107.268 128.633C107.268 128.171 107.367 127.757 107.565 127.391C107.769 127.025 108.045 126.74 108.393 126.536C108.747 126.332 109.143 126.23 109.581 126.23C110.019 126.23 110.412 126.332 110.76 126.536C111.108 126.74 111.381 127.025 111.579 127.391C111.777 127.751 111.876 128.165 111.876 128.633L111.867 128.831ZM109.581 126.779C109.125 126.779 108.741 126.926 108.429 127.22C108.123 127.508 107.949 127.886 107.907 128.354H111.264C111.222 127.886 111.045 127.508 110.733 127.22C110.427 126.926 110.043 126.779 109.581 126.779ZM115.67 130.712C115.55 130.82 115.4 130.904 115.22 130.964C115.046 131.018 114.863 131.045 114.671 131.045C114.227 131.045 113.885 130.925 113.645 130.685C113.405 130.445 113.285 130.106 113.285 129.668V126.806H112.439V126.266H113.285V125.231H113.924V126.266H115.364V126.806H113.924V129.632C113.924 129.914 113.993 130.13 114.131 130.28C114.275 130.424 114.479 130.496 114.743 130.496C114.875 130.496 115.001 130.475 115.121 130.433C115.247 130.391 115.355 130.331 115.445 130.253L115.67 130.712ZM118.102 131.045C117.718 131.045 117.349 130.991 116.995 130.883C116.647 130.769 116.374 130.628 116.176 130.46L116.464 129.956C116.662 130.112 116.911 130.241 117.211 130.343C117.511 130.439 117.823 130.487 118.147 130.487C118.579 130.487 118.897 130.421 119.101 130.289C119.311 130.151 119.416 129.959 119.416 129.713C119.416 129.539 119.359 129.404 119.245 129.308C119.131 129.206 118.987 129.131 118.813 129.083C118.639 129.029 118.408 128.978 118.12 128.93C117.736 128.858 117.427 128.786 117.193 128.714C116.959 128.636 116.758 128.507 116.59 128.327C116.428 128.147 116.347 127.898 116.347 127.58C116.347 127.184 116.512 126.86 116.842 126.608C117.172 126.356 117.631 126.23 118.219 126.23C118.525 126.23 118.831 126.272 119.137 126.356C119.443 126.434 119.695 126.539 119.893 126.671L119.614 127.184C119.224 126.914 118.759 126.779 118.219 126.779C117.811 126.779 117.502 126.851 117.292 126.995C117.088 127.139 116.986 127.328 116.986 127.562C116.986 127.742 117.043 127.886 117.157 127.994C117.277 128.102 117.424 128.183 117.598 128.237C117.772 128.285 118.012 128.336 118.318 128.39C118.696 128.462 118.999 128.534 119.227 128.606C119.455 128.678 119.65 128.801 119.812 128.975C119.974 129.149 120.055 129.389 120.055 129.695C120.055 130.109 119.881 130.439 119.533 130.685C119.191 130.925 118.714 131.045 118.102 131.045ZM86.6808 135.7V142H86.0418V136.96L83.5668 141.199H83.2518L80.7768 136.987V142H80.1378V135.7H80.6868L83.4228 140.371L86.1318 135.7H86.6808ZM90.2545 137.23C90.8725 137.23 91.3465 137.386 91.6765 137.698C92.0065 138.004 92.1715 138.46 92.1715 139.066V142H91.5595V141.262C91.4155 141.508 91.2025 141.7 90.9205 141.838C90.6445 141.976 90.3145 142.045 89.9305 142.045C89.4025 142.045 88.9825 141.919 88.6705 141.667C88.3585 141.415 88.2025 141.082 88.2025 140.668C88.2025 140.266 88.3465 139.942 88.6345 139.696C88.9285 139.45 89.3935 139.327 90.0295 139.327H91.5325V139.039C91.5325 138.631 91.4185 138.322 91.1905 138.112C90.9625 137.896 90.6295 137.788 90.1915 137.788C89.8915 137.788 89.6035 137.839 89.3275 137.941C89.0515 138.037 88.8145 138.172 88.6165 138.346L88.3285 137.869C88.5685 137.665 88.8565 137.509 89.1925 137.401C89.5285 137.287 89.8825 137.23 90.2545 137.23ZM90.0295 141.541C90.3895 141.541 90.6985 141.46 90.9565 141.298C91.2145 141.13 91.4065 140.89 91.5325 140.578V139.804H90.0475C89.2375 139.804 88.8325 140.086 88.8325 140.65C88.8325 140.926 88.9375 141.145 89.1475 141.307C89.3575 141.463 89.6515 141.541 90.0295 141.541ZM98.3077 137.266V141.424C98.3077 142.228 98.1097 142.822 97.7137 143.206C97.3237 143.596 96.7327 143.791 95.9407 143.791C95.5027 143.791 95.0857 143.725 94.6897 143.593C94.2997 143.467 93.9817 143.29 93.7357 143.062L94.0597 142.576C94.2877 142.78 94.5637 142.939 94.8877 143.053C95.2177 143.167 95.5627 143.224 95.9227 143.224C96.5227 143.224 96.9637 143.083 97.2457 142.801C97.5277 142.525 97.6687 142.093 97.6687 141.505V140.902C97.4707 141.202 97.2097 141.43 96.8857 141.586C96.5677 141.742 96.2137 141.82 95.8237 141.82C95.3797 141.82 94.9747 141.724 94.6087 141.532C94.2487 141.334 93.9637 141.061 93.7537 140.713C93.5497 140.359 93.4477 139.96 93.4477 139.516C93.4477 139.072 93.5497 138.676 93.7537 138.328C93.9637 137.98 94.2487 137.71 94.6087 137.518C94.9687 137.326 95.3737 137.23 95.8237 137.23C96.2257 137.23 96.5887 137.311 96.9127 137.473C97.2367 137.635 97.4977 137.869 97.6957 138.175V137.266H98.3077ZM95.8867 141.253C96.2287 141.253 96.5377 141.181 96.8137 141.037C97.0897 140.887 97.3027 140.68 97.4527 140.416C97.6087 140.152 97.6867 139.852 97.6867 139.516C97.6867 139.18 97.6087 138.883 97.4527 138.625C97.3027 138.361 97.0897 138.157 96.8137 138.013C96.5437 137.863 96.2347 137.788 95.8867 137.788C95.5447 137.788 95.2357 137.86 94.9597 138.004C94.6897 138.148 94.4767 138.352 94.3207 138.616C94.1707 138.88 94.0957 139.18 94.0957 139.516C94.0957 139.852 94.1707 140.152 94.3207 140.416C94.4767 140.68 94.6897 140.887 94.9597 141.037C95.2357 141.181 95.5447 141.253 95.8867 141.253ZM102.507 137.23C103.101 137.23 103.572 137.404 103.92 137.752C104.274 138.094 104.451 138.595 104.451 139.255V142H103.812V139.318C103.812 138.826 103.689 138.451 103.443 138.193C103.197 137.935 102.846 137.806 102.39 137.806C101.88 137.806 101.475 137.959 101.175 138.265C100.881 138.565 100.734 138.982 100.734 139.516V142H100.095V137.266H100.707V138.139C100.881 137.851 101.121 137.629 101.427 137.473C101.739 137.311 102.099 137.23 102.507 137.23ZM110.325 139.831H106.365C106.401 140.323 106.59 140.722 106.932 141.028C107.274 141.328 107.706 141.478 108.228 141.478C108.522 141.478 108.792 141.427 109.038 141.325C109.284 141.217 109.497 141.061 109.677 140.857L110.037 141.271C109.827 141.523 109.563 141.715 109.245 141.847C108.933 141.979 108.588 142.045 108.21 142.045C107.724 142.045 107.292 141.943 106.914 141.739C106.542 141.529 106.251 141.241 106.041 140.875C105.831 140.509 105.726 140.095 105.726 139.633C105.726 139.171 105.825 138.757 106.023 138.391C106.227 138.025 106.503 137.74 106.851 137.536C107.205 137.332 107.601 137.23 108.039 137.23C108.477 137.23 108.87 137.332 109.218 137.536C109.566 137.74 109.839 138.025 110.037 138.391C110.235 138.751 110.334 139.165 110.334 139.633L110.325 139.831ZM108.039 137.779C107.583 137.779 107.199 137.926 106.887 138.22C106.581 138.508 106.407 138.886 106.365 139.354H109.722C109.68 138.886 109.503 138.508 109.191 138.22C108.885 137.926 108.501 137.779 108.039 137.779ZM114.128 141.712C114.008 141.82 113.858 141.904 113.678 141.964C113.504 142.018 113.321 142.045 113.129 142.045C112.685 142.045 112.343 141.925 112.103 141.685C111.863 141.445 111.743 141.106 111.743 140.668V137.806H110.897V137.266H111.743V136.231H112.382V137.266H113.822V137.806H112.382V140.632C112.382 140.914 112.451 141.13 112.589 141.28C112.733 141.424 112.937 141.496 113.201 141.496C113.333 141.496 113.459 141.475 113.579 141.433C113.705 141.391 113.813 141.331 113.903 141.253L114.128 141.712ZM115.291 137.266H115.93V142H115.291V137.266ZM115.615 136.231C115.483 136.231 115.372 136.186 115.282 136.096C115.192 136.006 115.147 135.898 115.147 135.772C115.147 135.652 115.192 135.547 115.282 135.457C115.372 135.367 115.483 135.322 115.615 135.322C115.747 135.322 115.858 135.367 115.948 135.457C116.038 135.541 116.083 135.643 116.083 135.763C116.083 135.895 116.038 136.006 115.948 136.096C115.858 136.186 115.747 136.231 115.615 136.231ZM119.67 142.045C119.202 142.045 118.782 141.943 118.41 141.739C118.044 141.535 117.756 141.25 117.546 140.884C117.336 140.512 117.231 140.095 117.231 139.633C117.231 139.171 117.336 138.757 117.546 138.391C117.756 138.025 118.044 137.74 118.41 137.536C118.782 137.332 119.202 137.23 119.67 137.23C120.078 137.23 120.441 137.311 120.759 137.473C121.083 137.629 121.338 137.86 121.524 138.166L121.047 138.49C120.891 138.256 120.693 138.082 120.453 137.968C120.213 137.848 119.952 137.788 119.67 137.788C119.328 137.788 119.019 137.866 118.743 138.022C118.473 138.172 118.26 138.388 118.104 138.67C117.954 138.952 117.879 139.273 117.879 139.633C117.879 139.999 117.954 140.323 118.104 140.605C118.26 140.881 118.473 141.097 118.743 141.253C119.019 141.403 119.328 141.478 119.67 141.478C119.952 141.478 120.213 141.421 120.453 141.307C120.693 141.193 120.891 141.019 121.047 140.785L121.524 141.109C121.338 141.415 121.083 141.649 120.759 141.811C120.435 141.967 120.072 142.045 119.67 142.045ZM91.2057 147.276V149.751H94.4637V150.327H91.2057V153H90.5397V146.7H94.8597V147.276H91.2057ZM96.0121 148.266H96.6511V153H96.0121V148.266ZM96.3361 147.231C96.2041 147.231 96.0931 147.186 96.0031 147.096C95.9131 147.006 95.8681 146.898 95.8681 146.772C95.8681 146.652 95.9131 146.547 96.0031 146.457C96.0931 146.367 96.2041 146.322 96.3361 146.322C96.4681 146.322 96.5791 146.367 96.6691 146.457C96.7591 146.541 96.8041 146.643 96.8041 146.763C96.8041 146.895 96.7591 147.006 96.6691 147.096C96.5791 147.186 96.4681 147.231 96.3361 147.231ZM102.551 150.831H98.5911C98.6271 151.323 98.8161 151.722 99.1581 152.028C99.5001 152.328 99.9321 152.478 100.454 152.478C100.748 152.478 101.018 152.427 101.264 152.325C101.51 152.217 101.723 152.061 101.903 151.857L102.263 152.271C102.053 152.523 101.789 152.715 101.471 152.847C101.159 152.979 100.814 153.045 100.436 153.045C99.9501 153.045 99.5181 152.943 99.1401 152.739C98.7681 152.529 98.4771 152.241 98.2671 151.875C98.0571 151.509 97.9521 151.095 97.9521 150.633C97.9521 150.171 98.0511 149.757 98.2491 149.391C98.4531 149.025 98.7291 148.74 99.0771 148.536C99.4311 148.332 99.8271 148.23 100.265 148.23C100.703 148.23 101.096 148.332 101.444 148.536C101.792 148.74 102.065 149.025 102.263 149.391C102.461 149.751 102.56 150.165 102.56 150.633L102.551 150.831ZM100.265 148.779C99.8091 148.779 99.4251 148.926 99.1131 149.22C98.8071 149.508 98.6331 149.886 98.5911 150.354H101.948C101.906 149.886 101.729 149.508 101.417 149.22C101.111 148.926 100.727 148.779 100.265 148.779ZM103.861 146.322H104.5V153H103.861V146.322ZM110.598 146.322V153H109.986V152.064C109.794 152.382 109.539 152.625 109.221 152.793C108.909 152.961 108.555 153.045 108.159 153.045C107.715 153.045 107.313 152.943 106.953 152.739C106.593 152.535 106.311 152.25 106.107 151.884C105.903 151.518 105.801 151.101 105.801 150.633C105.801 150.165 105.903 149.748 106.107 149.382C106.311 149.016 106.593 148.734 106.953 148.536C107.313 148.332 107.715 148.23 108.159 148.23C108.543 148.23 108.888 148.311 109.194 148.473C109.506 148.629 109.761 148.86 109.959 149.166V146.322H110.598ZM108.213 152.478C108.543 152.478 108.84 152.403 109.104 152.253C109.374 152.097 109.584 151.878 109.734 151.596C109.89 151.314 109.968 150.993 109.968 150.633C109.968 150.273 109.89 149.952 109.734 149.67C109.584 149.388 109.374 149.172 109.104 149.022C108.84 148.866 108.543 148.788 108.213 148.788C107.877 148.788 107.574 148.866 107.304 149.022C107.04 149.172 106.83 149.388 106.674 149.67C106.524 149.952 106.449 150.273 106.449 150.633C106.449 150.993 106.524 151.314 106.674 151.596C106.83 151.878 107.04 152.097 107.304 152.253C107.574 152.403 107.877 152.478 108.213 152.478Z" fill="black"/>
<path d="M208.5 15.7977C194.5 4.631 155.4 -11.0023 111 15.7977" stroke="#4134D6"/>
<path d="M113 9L111.5 15.5H118" stroke="#4134D6"/>
<path d="M217.61 15L216.17 12.975C216.008 12.993 215.84 13.002 215.666 13.002H213.974V15H213.308V8.7H215.666C216.47 8.7 217.1 8.892 217.556 9.276C218.012 9.66 218.24 10.188 218.24 10.86C218.24 11.352 218.114 11.769 217.862 12.111C217.616 12.447 217.262 12.69 216.8 12.84L218.339 15H217.61ZM215.648 12.435C216.272 12.435 216.749 12.297 217.079 12.021C217.409 11.745 217.574 11.358 217.574 10.86C217.574 10.35 217.409 9.96 217.079 9.69C216.749 9.414 216.272 9.276 215.648 9.276H213.974V12.435H215.648ZM221.612 15.045C221.156 15.045 220.745 14.943 220.379 14.739C220.013 14.529 219.725 14.241 219.515 13.875C219.305 13.509 219.2 13.095 219.2 12.633C219.2 12.171 219.305 11.757 219.515 11.391C219.725 11.025 220.013 10.74 220.379 10.536C220.745 10.332 221.156 10.23 221.612 10.23C222.068 10.23 222.479 10.332 222.845 10.536C223.211 10.74 223.496 11.025 223.7 11.391C223.91 11.757 224.015 12.171 224.015 12.633C224.015 13.095 223.91 13.509 223.7 13.875C223.496 14.241 223.211 14.529 222.845 14.739C222.479 14.943 222.068 15.045 221.612 15.045ZM221.612 14.478C221.948 14.478 222.248 14.403 222.512 14.253C222.782 14.097 222.992 13.878 223.142 13.596C223.292 13.314 223.367 12.993 223.367 12.633C223.367 12.273 223.292 11.952 223.142 11.67C222.992 11.388 222.782 11.172 222.512 11.022C222.248 10.866 221.948 10.788 221.612 10.788C221.276 10.788 220.973 10.866 220.703 11.022C220.439 11.172 220.229 11.388 220.073 11.67C219.923 11.952 219.848 12.273 219.848 12.633C219.848 12.993 219.923 13.314 220.073 13.596C220.229 13.878 220.439 14.097 220.703 14.253C220.973 14.403 221.276 14.478 221.612 14.478ZM227.813 14.712C227.693 14.82 227.543 14.904 227.363 14.964C227.189 15.018 227.006 15.045 226.814 15.045C226.37 15.045 226.028 14.925 225.788 14.685C225.548 14.445 225.428 14.106 225.428 13.668V10.806H224.582V10.266H225.428V9.231H226.067V10.266H227.507V10.806H226.067V13.632C226.067 13.914 226.136 14.13 226.274 14.28C226.418 14.424 226.622 14.496 226.886 14.496C227.018 14.496 227.144 14.475 227.264 14.433C227.39 14.391 227.498 14.331 227.588 14.253L227.813 14.712ZM230.632 10.23C231.25 10.23 231.724 10.386 232.054 10.698C232.384 11.004 232.549 11.46 232.549 12.066V15H231.937V14.262C231.793 14.508 231.58 14.7 231.298 14.838C231.022 14.976 230.692 15.045 230.308 15.045C229.78 15.045 229.36 14.919 229.048 14.667C228.736 14.415 228.58 14.082 228.58 13.668C228.58 13.266 228.724 12.942 229.012 12.696C229.306 12.45 229.771 12.327 230.407 12.327H231.91V12.039C231.91 11.631 231.796 11.322 231.568 11.112C231.34 10.896 231.007 10.788 230.569 10.788C230.269 10.788 229.981 10.839 229.705 10.941C229.429 11.037 229.192 11.172 228.994 11.346L228.706 10.869C228.946 10.665 229.234 10.509 229.57 10.401C229.906 10.287 230.26 10.23 230.632 10.23ZM230.407 14.541C230.767 14.541 231.076 14.46 231.334 14.298C231.592 14.13 231.784 13.89 231.91 13.578V12.804H230.425C229.615 12.804 229.21 13.086 229.21 13.65C229.21 13.926 229.315 14.145 229.525 14.307C229.735 14.463 230.029 14.541 230.407 14.541ZM236.778 14.712C236.658 14.82 236.508 14.904 236.328 14.964C236.154 15.018 235.971 15.045 235.779 15.045C235.335 15.045 234.993 14.925 234.753 14.685C234.513 14.445 234.393 14.106 234.393 13.668V10.806H233.547V10.266H234.393V9.231H235.032V10.266H236.472V10.806H235.032V13.632C235.032 13.914 235.101 14.13 235.239 14.28C235.383 14.424 235.587 14.496 235.851 14.496C235.983 14.496 236.109 14.475 236.229 14.433C236.355 14.391 236.463 14.331 236.553 14.253L236.778 14.712ZM241.896 12.831H237.936C237.972 13.323 238.161 13.722 238.503 14.028C238.845 14.328 239.277 14.478 239.799 14.478C240.093 14.478 240.363 14.427 240.609 14.325C240.855 14.217 241.068 14.061 241.248 13.857L241.608 14.271C241.398 14.523 241.134 14.715 240.816 14.847C240.504 14.979 240.159 15.045 239.781 15.045C239.295 15.045 238.863 14.943 238.485 14.739C238.113 14.529 237.822 14.241 237.612 13.875C237.402 13.509 237.297 13.095 237.297 12.633C237.297 12.171 237.396 11.757 237.594 11.391C237.798 11.025 238.074 10.74 238.422 10.536C238.776 10.332 239.172 10.23 239.61 10.23C240.048 10.23 240.441 10.332 240.789 10.536C241.137 10.74 241.41 11.025 241.608 11.391C241.806 11.751 241.905 12.165 241.905 12.633L241.896 12.831ZM239.61 10.779C239.154 10.779 238.77 10.926 238.458 11.22C238.152 11.508 237.978 11.886 237.936 12.354H241.293C241.251 11.886 241.074 11.508 240.762 11.22C240.456 10.926 240.072 10.779 239.61 10.779ZM244.474 15.045C244.09 15.045 243.721 14.991 243.367 14.883C243.019 14.769 242.746 14.628 242.548 14.46L242.836 13.956C243.034 14.112 243.283 14.241 243.583 14.343C243.883 14.439 244.195 14.487 244.519 14.487C244.951 14.487 245.269 14.421 245.473 14.289C245.683 14.151 245.788 13.959 245.788 13.713C245.788 13.539 245.731 13.404 245.617 13.308C245.503 13.206 245.359 13.131 245.185 13.083C245.011 13.029 244.78 12.978 244.492 12.93C244.108 12.858 243.799 12.786 243.565 12.714C243.331 12.636 243.13 12.507 242.962 12.327C242.8 12.147 242.719 11.898 242.719 11.58C242.719 11.184 242.884 10.86 243.214 10.608C243.544 10.356 244.003 10.23 244.591 10.23C244.897 10.23 245.203 10.272 245.509 10.356C245.815 10.434 246.067 10.539 246.265 10.671L245.986 11.184C245.596 10.914 245.131 10.779 244.591 10.779C244.183 10.779 243.874 10.851 243.664 10.995C243.46 11.139 243.358 11.328 243.358 11.562C243.358 11.742 243.415 11.886 243.529 11.994C243.649 12.102 243.796 12.183 243.97 12.237C244.144 12.285 244.384 12.336 244.69 12.39C245.068 12.462 245.371 12.534 245.599 12.606C245.827 12.678 246.022 12.801 246.184 12.975C246.346 13.149 246.427 13.389 246.427 13.695C246.427 14.109 246.253 14.439 245.905 14.685C245.563 14.925 245.086 15.045 244.474 15.045ZM210.837 26.054C210.213 26.054 209.649 25.916 209.145 25.64C208.647 25.364 208.254 24.983 207.966 24.497C207.684 24.005 207.543 23.456 207.543 22.85C207.543 22.244 207.684 21.698 207.966 21.212C208.254 20.72 208.65 20.336 209.154 20.06C209.658 19.784 210.222 19.646 210.846 19.646C211.314 19.646 211.746 19.724 212.142 19.88C212.538 20.036 212.874 20.264 213.15 20.564L212.727 20.987C212.235 20.489 211.614 20.24 210.864 20.24C210.366 20.24 209.913 20.354 209.505 20.582C209.097 20.81 208.776 21.122 208.542 21.518C208.314 21.914 208.2 22.358 208.2 22.85C208.2 23.342 208.314 23.786 208.542 24.182C208.776 24.578 209.097 24.89 209.505 25.118C209.913 25.346 210.366 25.46 210.864 25.46C211.62 25.46 212.241 25.208 212.727 24.704L213.15 25.127C212.874 25.427 212.535 25.658 212.133 25.82C211.737 25.976 211.305 26.054 210.837 26.054ZM214.434 19.322H215.073V26H214.434V19.322ZM218.786 26.045C218.33 26.045 217.919 25.943 217.553 25.739C217.187 25.529 216.899 25.241 216.689 24.875C216.479 24.509 216.374 24.095 216.374 23.633C216.374 23.171 216.479 22.757 216.689 22.391C216.899 22.025 217.187 21.74 217.553 21.536C217.919 21.332 218.33 21.23 218.786 21.23C219.242 21.23 219.653 21.332 220.019 21.536C220.385 21.74 220.67 22.025 220.874 22.391C221.084 22.757 221.189 23.171 221.189 23.633C221.189 24.095 221.084 24.509 220.874 24.875C220.67 25.241 220.385 25.529 220.019 25.739C219.653 25.943 219.242 26.045 218.786 26.045ZM218.786 25.478C219.122 25.478 219.422 25.403 219.686 25.253C219.956 25.097 220.166 24.878 220.316 24.596C220.466 24.314 220.541 23.993 220.541 23.633C220.541 23.273 220.466 22.952 220.316 22.67C220.166 22.388 219.956 22.172 219.686 22.022C219.422 21.866 219.122 21.788 218.786 21.788C218.45 21.788 218.147 21.866 217.877 22.022C217.613 22.172 217.403 22.388 217.247 22.67C217.097 22.952 217.022 23.273 217.022 23.633C217.022 23.993 217.097 24.314 217.247 24.596C217.403 24.878 217.613 25.097 217.877 25.253C218.147 25.403 218.45 25.478 218.786 25.478ZM224.456 26.045C223.988 26.045 223.568 25.943 223.196 25.739C222.83 25.535 222.542 25.25 222.332 24.884C222.122 24.512 222.017 24.095 222.017 23.633C222.017 23.171 222.122 22.757 222.332 22.391C222.542 22.025 222.83 21.74 223.196 21.536C223.568 21.332 223.988 21.23 224.456 21.23C224.864 21.23 225.227 21.311 225.545 21.473C225.869 21.629 226.124 21.86 226.31 22.166L225.833 22.49C225.677 22.256 225.479 22.082 225.239 21.968C224.999 21.848 224.738 21.788 224.456 21.788C224.114 21.788 223.805 21.866 223.529 22.022C223.259 22.172 223.046 22.388 222.89 22.67C222.74 22.952 222.665 23.273 222.665 23.633C222.665 23.999 222.74 24.323 222.89 24.605C223.046 24.881 223.259 25.097 223.529 25.253C223.805 25.403 224.114 25.478 224.456 25.478C224.738 25.478 224.999 25.421 225.239 25.307C225.479 25.193 225.677 25.019 225.833 24.785L226.31 25.109C226.124 25.415 225.869 25.649 225.545 25.811C225.221 25.967 224.858 26.045 224.456 26.045ZM229.25 23.624L228.134 24.65V26H227.495V19.322H228.134V23.849L230.96 21.266H231.752L229.727 23.201L231.941 26H231.158L229.25 23.624ZM239.602 21.266L237.811 26H237.208L235.714 22.121L234.22 26H233.617L231.835 21.266H232.447L233.932 25.289L235.453 21.266H236.002L237.514 25.289L239.017 21.266H239.602ZM240.564 21.266H241.203V26H240.564V21.266ZM240.888 20.231C240.756 20.231 240.645 20.186 240.555 20.096C240.465 20.006 240.42 19.898 240.42 19.772C240.42 19.652 240.465 19.547 240.555 19.457C240.645 19.367 240.756 19.322 240.888 19.322C241.02 19.322 241.131 19.367 241.221 19.457C241.311 19.541 241.356 19.643 241.356 19.763C241.356 19.895 241.311 20.006 241.221 20.096C241.131 20.186 241.02 20.231 240.888 20.231ZM244.25 26.045C243.866 26.045 243.497 25.991 243.143 25.883C242.795 25.769 242.522 25.628 242.324 25.46L242.612 24.956C242.81 25.112 243.059 25.241 243.359 25.343C243.659 25.439 243.971 25.487 244.295 25.487C244.727 25.487 245.045 25.421 245.249 25.289C245.459 25.151 245.564 24.959 245.564 24.713C245.564 24.539 245.507 24.404 245.393 24.308C245.279 24.206 245.135 24.131 244.961 24.083C244.787 24.029 244.556 23.978 244.268 23.93C243.884 23.858 243.575 23.786 243.341 23.714C243.107 23.636 242.906 23.507 242.738 23.327C242.576 23.147 242.495 22.898 242.495 22.58C242.495 22.184 242.66 21.86 242.99 21.608C243.32 21.356 243.779 21.23 244.367 21.23C244.673 21.23 244.979 21.272 245.285 21.356C245.591 21.434 245.843 21.539 246.041 21.671L245.762 22.184C245.372 21.914 244.907 21.779 244.367 21.779C243.959 21.779 243.65 21.851 243.44 21.995C243.236 22.139 243.134 22.328 243.134 22.562C243.134 22.742 243.191 22.886 243.305 22.994C243.425 23.102 243.572 23.183 243.746 23.237C243.92 23.285 244.16 23.336 244.466 23.39C244.844 23.462 245.147 23.534 245.375 23.606C245.603 23.678 245.798 23.801 245.96 23.975C246.122 24.149 246.203 24.389 246.203 24.695C246.203 25.109 246.029 25.439 245.681 25.685C245.339 25.925 244.862 26.045 244.25 26.045ZM251.507 23.831H247.547C247.583 24.323 247.772 24.722 248.114 25.028C248.456 25.328 248.888 25.478 249.41 25.478C249.704 25.478 249.974 25.427 250.22 25.325C250.466 25.217 250.679 25.061 250.859 24.857L251.219 25.271C251.009 25.523 250.745 25.715 250.427 25.847C250.115 25.979 249.77 26.045 249.392 26.045C248.906 26.045 248.474 25.943 248.096 25.739C247.724 25.529 247.433 25.241 247.223 24.875C247.013 24.509 246.908 24.095 246.908 23.633C246.908 23.171 247.007 22.757 247.205 22.391C247.409 22.025 247.685 21.74 248.033 21.536C248.387 21.332 248.783 21.23 249.221 21.23C249.659 21.23 250.052 21.332 250.4 21.536C250.748 21.74 251.021 22.025 251.219 22.391C251.417 22.751 251.516 23.165 251.516 23.633L251.507 23.831ZM249.221 21.779C248.765 21.779 248.381 21.926 248.069 22.22C247.763 22.508 247.589 22.886 247.547 23.354H250.904C250.862 22.886 250.685 22.508 250.373 22.22C250.067 21.926 249.683 21.779 249.221 21.779Z" fill="#4134D6"/>
<defs>
<linearGradient id="paint0_linear" x1="181.5" y1="92.5063" x2="181.494" y2="93.5063" gradientUnits="userSpaceOnUse">
<stop stop-color="#FA0E13" stop-opacity="0.52"/>
<stop offset="0.0001" stop-color="#EF1717"/>
<stop offset="0.9999" stop-color="#0D53DE" stop-opacity="0.263915"/>
<stop offset="1" stop-color="#168FE7" stop-opacity="0"/>
</linearGradient>
<linearGradient id="paint1_linear" x1="181.5" y1="100.506" x2="181.494" y2="101.506" gradientUnits="userSpaceOnUse">
<stop stop-color="#FA0E13" stop-opacity="0.52"/>
<stop offset="0.0001" stop-color="#EF1717"/>
<stop offset="0.9999" stop-color="#0D53DE" stop-opacity="0.263915"/>
<stop offset="1" stop-color="#168FE7" stop-opacity="0"/>
</linearGradient>
<linearGradient id="paint2_linear" x1="181.5" y1="108.506" x2="181.494" y2="109.506" gradientUnits="userSpaceOnUse">
<stop stop-color="#FA0E13" stop-opacity="0.52"/>
<stop offset="0.0001" stop-color="#EF1717"/>
<stop offset="0.9999" stop-color="#0D53DE" stop-opacity="0.263915"/>
<stop offset="1" stop-color="#168FE7" stop-opacity="0"/>
</linearGradient>
</defs>
</svg>
