<svg width="178" height="153" viewBox="0 0 178 153" fill="none" xmlns="http://www.w3.org/2000/svg">
<path d="M129.606 59.3321C133.413 62.5271 133.91 68.2039 130.715 72.0116L119.035 85.9312C115.84 89.7389 110.163 90.2356 106.355 87.0405L105.955 86.7049C102.148 83.5099 101.651 77.8331 104.846 74.0254L116.526 60.1057C119.721 56.2981 125.398 55.8014 129.206 58.9964L129.606 59.3321Z" fill="white"/>
<rect x="127.641" y="77.6221" width="34.1712" height="17" rx="8.5" transform="rotate(-147.9 127.641 77.6221)" fill="white"/>
<rect x="67.2501" y="92.6353" width="36.1708" height="17" rx="8.5" transform="rotate(-130 67.2501 92.6353)" fill="white"/>
<rect x="60" y="108.17" width="36.1708" height="17" rx="8.5" transform="rotate(-90 60 108.17)" fill="white"/>
<rect x="102" y="108.17" width="36.1708" height="17" rx="8.5" transform="rotate(-90 102 108.17)" fill="white"/>
<rect x="46.271" y="59.04" width="87.8764" height="17.2231" rx="8.61157" transform="rotate(-10 46.271 59.04)" fill="white"/>
<rect x="46" y="40.2593" width="87.8764" height="17.2231" rx="8.61157" transform="rotate(-10 46 40.2593)" fill="white"/>
<path d="M47.7209 30.0193C46.895 25.3355 50.0224 20.869 54.7062 20.0431L124.286 7.77432C128.97 6.94844 133.436 10.0759 134.262 14.7597C135.088 19.4435 131.961 23.9099 127.277 24.7358L57.697 37.0046C53.0132 37.8305 48.5467 34.703 47.7209 30.0193Z" fill="white"/>
<path d="M47 8.49994C47 3.80552 50.8056 -5.51077e-05 55.5 -5.51077e-05L125.5 -5.51077e-05C130.194 -5.51077e-05 134 3.80552 134 8.49994C134 13.1944 130.194 16.9999 125.5 16.9999L55.5 16.9999C50.8056 16.9999 47 13.1944 47 8.49994Z" fill="white"/>
<path d="M56 142V112H123V142L109.064 153H69.4L56 142Z" fill="#C4C4C4"/>
<rect x="101" y="101" width="19" height="3" fill="#C4C4C4"/>
<path d="M59 101H78V104H59V101Z" fill="#C4C4C4"/>
<path d="M56 104H123V112H56V104Z" fill="#C4C4C4"/>
<circle cx="71" cy="81" r="2" fill="#FAFF00"/>
<circle cx="73" cy="86" r="2" fill="#FAFF00"/>
<circle cx="69" cy="76" r="2" fill="#FAFF00"/>
<path d="M68 76H70" stroke="black" stroke-width="0.5"/>
<path d="M70 81H72" stroke="black" stroke-width="0.5"/>
<path d="M72 86H74" stroke="black" stroke-width="0.5"/>
<path d="M56.5237 76.336L56.6335 75.067C56.6381 75.0143 56.6468 74.962 56.6597 74.9107L57.0984 73.1557C57.1262 73.0445 57.1729 72.9389 57.2365 72.8436L58.0791 71.5797C58.1198 71.5186 58.1672 71.4622 58.2202 71.4115L59.301 70.3785C59.346 70.3355 59.3949 70.2968 59.4472 70.2628L60.5332 69.5574C60.6043 69.5112 60.6811 69.4742 60.7617 69.4473L62.1404 68.9878L64.0209 68.5177C64.1003 68.4978 64.1817 68.4878 64.2635 68.4878L65.7111 68.4879" stroke="#B01FD5" stroke-width="0.56" stroke-linecap="round" stroke-linejoin="round"/>
<path d="M58.5237 78.336L58.6335 77.067C58.6381 77.0143 58.6468 76.962 58.6597 76.9107L59.0984 75.1557C59.1262 75.0445 59.1729 74.9389 59.2365 74.8436L60.0791 73.5797C60.1198 73.5186 60.1672 73.4622 60.2202 73.4115L61.301 72.3785C61.346 72.3355 61.3949 72.2968 61.4472 72.2628L62.5332 71.5574C62.6043 71.5112 62.6811 71.4742 62.7617 71.4473L64.1404 70.9878L66.0209 70.5177C66.1003 70.4978 66.1817 70.4878 66.2635 70.4878L67.7111 70.4879" stroke="#B01FD5" stroke-width="0.5" stroke-linecap="round" stroke-linejoin="round"/>
<path d="M60.3833 79.8482L60.4931 78.5792C60.4977 78.5265 60.5064 78.4742 60.5193 78.4229L60.958 76.6679C60.9858 76.5567 61.0325 76.4511 61.0961 76.3558L61.9387 75.0919C61.9794 75.0308 62.0268 74.9744 62.0798 74.9237L63.1606 73.8907C63.2056 73.8477 63.2546 73.809 63.3068 73.7751L64.3928 73.0696C64.464 73.0234 64.5408 72.9864 64.6213 72.9595L66 72.5L67.8805 72.0299C67.9599 72.01 68.0414 72 68.1231 72L69.5707 72.0001" stroke="#B01FD5" stroke-width="0.5" stroke-linecap="round" stroke-linejoin="round"/>
<circle cx="65" cy="81" r="2" fill="#FAFF00"/>
<path d="M64 81H66" stroke="black" stroke-width="0.5"/>
<path d="M51.3129 73C48.8129 70.8333 45.3129 65 51.3129 59" stroke="black"/>
<line x1="48.9242" y1="59.0937" x2="45.3557" y2="55.5914" stroke="#FF0000"/>
<path d="M44.3309 54.644L46.2353 54.8451L44.5677 56.5442L44.3309 54.644Z" fill="#FF0000"/>
<line x1="47.9242" y1="62.0937" x2="44.3557" y2="58.5914" stroke="#FF0000"/>
<path d="M43.3309 57.644L45.2353 57.8451L43.5677 59.5442L43.3309 57.644Z" fill="#FF0000"/>
<line x1="46.9242" y1="65.0937" x2="43.3557" y2="61.5914" stroke="#FF0000"/>
<path d="M42.3309 60.644L44.2353 60.8451L42.5677 62.5442L42.3309 60.644Z" fill="#FF0000"/>
<path d="M22.5908 45.3101H25.623V46H21.7427V39.6016H22.5908V45.3101ZM27.3413 46H26.5283V41.2451H27.3413V46ZM26.4624 39.9839C26.4624 39.8521 26.502 39.7407 26.5811 39.6499C26.6631 39.5591 26.7832 39.5137 26.9414 39.5137C27.0996 39.5137 27.2197 39.5591 27.3018 39.6499C27.3838 39.7407 27.4248 39.8521 27.4248 39.9839C27.4248 40.1157 27.3838 40.2256 27.3018 40.3135C27.2197 40.4014 27.0996 40.4453 26.9414 40.4453C26.7832 40.4453 26.6631 40.4014 26.5811 40.3135C26.502 40.2256 26.4624 40.1157 26.4624 39.9839ZM28.4531 43.583C28.4531 42.8418 28.6245 42.2529 28.9673 41.8164C29.3101 41.377 29.7642 41.1572 30.3296 41.1572C30.9097 41.1572 31.3623 41.3623 31.6875 41.7725L31.7271 41.2451H32.4697V45.8857C32.4697 46.501 32.2866 46.9858 31.9204 47.3403C31.5571 47.6948 31.0679 47.8721 30.4526 47.8721C30.1099 47.8721 29.7744 47.7988 29.4463 47.6523C29.1182 47.5059 28.8677 47.3052 28.6948 47.0503L29.1167 46.5625C29.4653 46.9932 29.8916 47.2085 30.3955 47.2085C30.791 47.2085 31.0986 47.0972 31.3184 46.8745C31.541 46.6519 31.6523 46.3384 31.6523 45.9341V45.5254C31.3271 45.9004 30.8833 46.0879 30.3208 46.0879C29.7642 46.0879 29.313 45.8638 28.9673 45.4155C28.6245 44.9673 28.4531 44.3564 28.4531 43.583ZM29.2705 43.6753C29.2705 44.2114 29.3804 44.6333 29.6001 44.9409C29.8198 45.2456 30.1274 45.3979 30.5229 45.3979C31.0356 45.3979 31.4121 45.165 31.6523 44.6992V42.5283C31.4033 42.0742 31.0298 41.8472 30.5317 41.8472C30.1362 41.8472 29.8271 42.001 29.6045 42.3086C29.3818 42.6162 29.2705 43.0718 29.2705 43.6753ZM34.5132 41.8208C34.8735 41.3784 35.3423 41.1572 35.9194 41.1572C36.9243 41.1572 37.4312 41.7241 37.4399 42.8579V46H36.627V42.8535C36.624 42.5107 36.5449 42.2573 36.3896 42.0933C36.2373 41.9292 35.9985 41.8472 35.6733 41.8472C35.4097 41.8472 35.1782 41.9175 34.979 42.0581C34.7798 42.1987 34.6245 42.3833 34.5132 42.6118V46H33.7002V39.25H34.5132V41.8208ZM39.7603 40.0938V41.2451H40.6479V41.8735H39.7603V44.8223C39.7603 45.0127 39.7998 45.1562 39.8789 45.2529C39.958 45.3467 40.0928 45.3936 40.2832 45.3936C40.377 45.3936 40.5059 45.376 40.6699 45.3408V46C40.4561 46.0586 40.248 46.0879 40.0459 46.0879C39.6826 46.0879 39.4087 45.978 39.2241 45.7583C39.0396 45.5386 38.9473 45.2266 38.9473 44.8223V41.8735H38.0815V41.2451H38.9473V40.0938H39.7603Z" fill="black"/>
<path d="M41.8418 55.4742C42.1038 55.5616 42.387 55.42 42.4743 55.158L43.8973 50.8889C43.9846 50.627 43.8431 50.3438 43.5811 50.2565C43.3191 50.1692 43.036 50.3107 42.9486 50.5727L41.6837 54.3674L37.889 53.1025C37.627 53.0152 37.3439 53.1568 37.2565 53.4188C37.1692 53.6807 37.3108 53.9639 37.5728 54.0512L41.8418 55.4742ZM37.5528 47.2236L39.5528 51.2236L40.4472 50.7763L38.4472 46.7764L37.5528 47.2236ZM39.5528 51.2236L41.5527 55.2235L42.4472 54.7763L40.4472 50.7763L39.5528 51.2236Z" fill="black"/>
<path d="M12.2471 87.6016V91.9521C12.2441 92.5557 12.0537 93.0493 11.6758 93.4331C11.3008 93.8169 10.791 94.0322 10.1465 94.0791L9.92236 94.0879C9.22217 94.0879 8.66406 93.8989 8.24805 93.521C7.83203 93.1431 7.62109 92.623 7.61523 91.9609V87.6016H8.4502V91.9346C8.4502 92.3975 8.57764 92.7578 8.83252 93.0156C9.0874 93.2705 9.45068 93.3979 9.92236 93.3979C10.3999 93.3979 10.7646 93.2705 11.0166 93.0156C11.2715 92.7607 11.3989 92.4019 11.3989 91.939V87.6016H12.2471ZM14.3345 94H13.5215V87.25H14.3345V94ZM16.7427 88.0938V89.2451H17.6304V89.8735H16.7427V92.8223C16.7427 93.0127 16.7822 93.1562 16.8613 93.2529C16.9404 93.3467 17.0752 93.3936 17.2656 93.3936C17.3594 93.3936 17.4883 93.376 17.6523 93.3408V94C17.4385 94.0586 17.2305 94.0879 17.0283 94.0879C16.665 94.0879 16.3911 93.978 16.2065 93.7583C16.022 93.5386 15.9297 93.2266 15.9297 92.8223V89.8735H15.064V89.2451H15.9297V88.0938H16.7427ZM20.8823 89.9746C20.7593 89.9541 20.626 89.9438 20.4824 89.9438C19.9492 89.9438 19.5874 90.1709 19.397 90.625V94H18.584V89.2451H19.375L19.3882 89.7944C19.6548 89.3696 20.0327 89.1572 20.522 89.1572C20.6802 89.1572 20.8003 89.1777 20.8823 89.2188V89.9746ZM24.3936 94C24.3467 93.9062 24.3086 93.7393 24.2793 93.499C23.9014 93.8916 23.4502 94.0879 22.9258 94.0879C22.457 94.0879 22.0718 93.9561 21.77 93.6924C21.4712 93.4258 21.3218 93.0889 21.3218 92.6816C21.3218 92.1865 21.5093 91.8027 21.8843 91.5303C22.2622 91.2549 22.7925 91.1172 23.4751 91.1172H24.2661V90.7437C24.2661 90.4595 24.1812 90.2339 24.0112 90.0669C23.8413 89.897 23.5908 89.812 23.2598 89.812C22.9697 89.812 22.7266 89.8853 22.5303 90.0317C22.334 90.1782 22.2358 90.3555 22.2358 90.5635H21.4185C21.4185 90.3262 21.502 90.0977 21.6689 89.8779C21.8389 89.6553 22.0674 89.4795 22.3545 89.3506C22.6445 89.2217 22.9624 89.1572 23.3081 89.1572C23.856 89.1572 24.2852 89.2949 24.5957 89.5703C24.9062 89.8428 25.0674 90.2192 25.0791 90.6997V92.8882C25.0791 93.3247 25.1348 93.6719 25.2461 93.9297V94H24.3936ZM23.0444 93.3804C23.2993 93.3804 23.541 93.3145 23.7695 93.1826C23.998 93.0508 24.1636 92.8794 24.2661 92.6685V91.6929H23.6289C22.6328 91.6929 22.1348 91.9844 22.1348 92.5674C22.1348 92.8223 22.2197 93.0215 22.3896 93.165C22.5596 93.3086 22.7778 93.3804 23.0444 93.3804ZM27.8521 92.897L29.0298 89.2451H29.8604L28.1553 94H27.5356L25.813 89.2451H26.6436L27.8521 92.897ZM31.5259 94H30.7129V89.2451H31.5259V94ZM30.647 87.9839C30.647 87.8521 30.6865 87.7407 30.7656 87.6499C30.8477 87.5591 30.9678 87.5137 31.126 87.5137C31.2842 87.5137 31.4043 87.5591 31.4863 87.6499C31.5684 87.7407 31.6094 87.8521 31.6094 87.9839C31.6094 88.1157 31.5684 88.2256 31.4863 88.3135C31.4043 88.4014 31.2842 88.4453 31.126 88.4453C30.9678 88.4453 30.8477 88.4014 30.7656 88.3135C30.6865 88.2256 30.647 88.1157 30.647 87.9839ZM32.6157 91.5786C32.6157 91.1128 32.7065 90.6938 32.8882 90.3218C33.0728 89.9497 33.3276 89.6626 33.6528 89.4604C33.981 89.2583 34.3545 89.1572 34.7734 89.1572C35.4209 89.1572 35.9438 89.3813 36.3423 89.8296C36.7437 90.2778 36.9443 90.874 36.9443 91.6182V91.6753C36.9443 92.1382 36.855 92.5542 36.6763 92.9233C36.5005 93.2896 36.2471 93.5752 35.916 93.7803C35.5879 93.9854 35.21 94.0879 34.7822 94.0879C34.1377 94.0879 33.6147 93.8638 33.2134 93.4155C32.8149 92.9673 32.6157 92.374 32.6157 91.6357V91.5786ZM33.4331 91.6753C33.4331 92.2026 33.5547 92.626 33.7979 92.9453C34.0439 93.2646 34.3721 93.4243 34.7822 93.4243C35.1953 93.4243 35.5234 93.2632 35.7666 92.9409C36.0098 92.6157 36.1313 92.1616 36.1313 91.5786C36.1313 91.0571 36.0068 90.6353 35.7578 90.313C35.5117 89.9878 35.1836 89.8252 34.7734 89.8252C34.3721 89.8252 34.0483 89.9849 33.8022 90.3042C33.5562 90.6235 33.4331 91.0806 33.4331 91.6753ZM38.8472 94H38.0342V87.25H38.8472V94ZM42.1255 94.0879C41.481 94.0879 40.9565 93.877 40.5522 93.4551C40.1479 93.0303 39.9458 92.4634 39.9458 91.7544V91.605C39.9458 91.1333 40.0352 90.7129 40.2139 90.3438C40.3955 89.9717 40.6475 89.6816 40.9697 89.4736C41.2949 89.2627 41.6465 89.1572 42.0244 89.1572C42.6426 89.1572 43.123 89.3608 43.4658 89.7681C43.8086 90.1753 43.98 90.7583 43.98 91.5171V91.8555H40.7588C40.7705 92.3242 40.9067 92.7036 41.1675 92.9937C41.4312 93.2808 41.7651 93.4243 42.1694 93.4243C42.4565 93.4243 42.6997 93.3657 42.8989 93.2485C43.0981 93.1313 43.2725 92.9761 43.4219 92.7827L43.9185 93.1694C43.52 93.7817 42.9224 94.0879 42.1255 94.0879ZM42.0244 89.8252C41.6963 89.8252 41.4209 89.9453 41.1982 90.1855C40.9756 90.4229 40.8379 90.7568 40.7852 91.1875H43.167V91.126C43.1436 90.7129 43.0322 90.3936 42.833 90.168C42.6338 89.9395 42.3643 89.8252 42.0244 89.8252ZM46.0278 88.0938V89.2451H46.9155V89.8735H46.0278V92.8223C46.0278 93.0127 46.0674 93.1562 46.1465 93.2529C46.2256 93.3467 46.3604 93.3936 46.5508 93.3936C46.6445 93.3936 46.7734 93.376 46.9375 93.3408V94C46.7236 94.0586 46.5156 94.0879 46.3135 94.0879C45.9502 94.0879 45.6763 93.978 45.4917 93.7583C45.3071 93.5386 45.2148 93.2266 45.2148 92.8223V89.8735H44.3491V89.2451H45.2148V88.0938H46.0278Z" fill="black"/>
<path d="M57.8959 80.0647C57.9317 79.7909 57.7386 79.5399 57.4648 79.5042L53.0026 78.9221C52.7288 78.8864 52.4779 79.0794 52.4421 79.3533C52.4064 79.6271 52.5995 79.878 52.8733 79.9137L56.8397 80.4311L56.3223 84.3975C56.2866 84.6713 56.4796 84.9223 56.7534 84.958C57.0272 84.9937 57.2782 84.8007 57.3139 84.5269L57.8959 80.0647ZM47.3049 88.3963L57.705 80.3963L57.0953 79.6037L46.6951 87.6037L47.3049 88.3963Z" fill="black"/>
<path d="M1.58643 66.4951V69H0.742676V62.6016H3.10254C3.80273 62.6016 4.35059 62.7803 4.74609 63.1377C5.14453 63.4951 5.34375 63.9683 5.34375 64.5571C5.34375 65.1782 5.14893 65.6572 4.75928 65.9941C4.37256 66.3281 3.81738 66.4951 3.09375 66.4951H1.58643ZM1.58643 65.8052H3.10254C3.55371 65.8052 3.89941 65.6997 4.13965 65.4888C4.37988 65.2749 4.5 64.9673 4.5 64.5659C4.5 64.1851 4.37988 63.8804 4.13965 63.6519C3.89941 63.4233 3.56982 63.3047 3.15088 63.2959H1.58643V65.8052ZM7.10596 64.8208C7.46631 64.3784 7.93506 64.1572 8.51221 64.1572C9.51709 64.1572 10.0239 64.7241 10.0327 65.8579V69H9.21973V65.8535C9.2168 65.5107 9.1377 65.2573 8.98242 65.0933C8.83008 64.9292 8.59131 64.8472 8.26611 64.8472C8.00244 64.8472 7.771 64.9175 7.57178 65.0581C7.37256 65.1987 7.21729 65.3833 7.10596 65.6118V69H6.29297V62.25H7.10596V64.8208ZM11.0347 66.5786C11.0347 66.1128 11.1255 65.6938 11.3071 65.3218C11.4917 64.9497 11.7466 64.6626 12.0718 64.4604C12.3999 64.2583 12.7734 64.1572 13.1924 64.1572C13.8398 64.1572 14.3628 64.3813 14.7612 64.8296C15.1626 65.2778 15.3633 65.874 15.3633 66.6182V66.6753C15.3633 67.1382 15.2739 67.5542 15.0952 67.9233C14.9194 68.2896 14.666 68.5752 14.335 68.7803C14.0068 68.9854 13.6289 69.0879 13.2012 69.0879C12.5566 69.0879 12.0337 68.8638 11.6323 68.4155C11.2339 67.9673 11.0347 67.374 11.0347 66.6357V66.5786ZM11.8521 66.6753C11.8521 67.2026 11.9736 67.626 12.2168 67.9453C12.4629 68.2646 12.791 68.4243 13.2012 68.4243C13.6143 68.4243 13.9424 68.2632 14.1855 67.9409C14.4287 67.6157 14.5503 67.1616 14.5503 66.5786C14.5503 66.0571 14.4258 65.6353 14.1768 65.313C13.9307 64.9878 13.6025 64.8252 13.1924 64.8252C12.791 64.8252 12.4673 64.9849 12.2212 65.3042C11.9751 65.6235 11.8521 66.0806 11.8521 66.6753ZM19.1514 67.7388C19.1514 67.519 19.0679 67.3491 18.9009 67.229C18.7368 67.106 18.4482 67.0005 18.0352 66.9126C17.625 66.8247 17.2983 66.7192 17.0552 66.5962C16.8149 66.4731 16.6362 66.3267 16.519 66.1567C16.4048 65.9868 16.3477 65.7847 16.3477 65.5503C16.3477 65.1606 16.5117 64.8311 16.8398 64.5615C17.1709 64.292 17.5928 64.1572 18.1055 64.1572C18.6445 64.1572 19.0811 64.2964 19.415 64.5747C19.752 64.853 19.9204 65.209 19.9204 65.6426H19.103C19.103 65.4199 19.0078 65.228 18.8174 65.0669C18.6299 64.9058 18.3926 64.8252 18.1055 64.8252C17.8096 64.8252 17.5781 64.8896 17.4111 65.0186C17.2441 65.1475 17.1606 65.3159 17.1606 65.5239C17.1606 65.7202 17.2383 65.8682 17.3936 65.9678C17.5488 66.0674 17.8286 66.1626 18.2329 66.2534C18.6401 66.3442 18.9697 66.4526 19.2217 66.5786C19.4736 66.7046 19.6597 66.8569 19.7798 67.0356C19.9028 67.2114 19.9644 67.4268 19.9644 67.6816C19.9644 68.1064 19.7944 68.4478 19.4546 68.7056C19.1147 68.9604 18.6738 69.0879 18.1318 69.0879C17.751 69.0879 17.4141 69.0205 17.1211 68.8857C16.8281 68.751 16.5981 68.5635 16.4312 68.3232C16.2671 68.0801 16.1851 67.8179 16.1851 67.5366H16.998C17.0127 67.8091 17.1211 68.0259 17.3232 68.187C17.5283 68.3452 17.7979 68.4243 18.1318 68.4243C18.4395 68.4243 18.6855 68.3628 18.8701 68.2397C19.0576 68.1138 19.1514 67.9468 19.1514 67.7388ZM25.04 66.6753C25.04 67.3989 24.8745 67.9819 24.5435 68.4243C24.2124 68.8667 23.7642 69.0879 23.1987 69.0879C22.6216 69.0879 22.1675 68.9048 21.8364 68.5386V70.8281H21.0234V64.2451H21.7661L21.8057 64.7725C22.1367 64.3623 22.5967 64.1572 23.1855 64.1572C23.7568 64.1572 24.208 64.3726 24.5391 64.8032C24.873 65.2339 25.04 65.833 25.04 66.6006V66.6753ZM24.2271 66.583C24.2271 66.0469 24.1128 65.6235 23.8843 65.313C23.6558 65.0024 23.3423 64.8472 22.9438 64.8472C22.4517 64.8472 22.0825 65.0654 21.8364 65.502V67.7739C22.0796 68.2075 22.4517 68.4243 22.9526 68.4243C23.3423 68.4243 23.6514 68.2705 23.8799 67.9629C24.1113 67.6523 24.2271 67.1924 24.2271 66.583ZM26.8901 64.8208C27.2505 64.3784 27.7192 64.1572 28.2964 64.1572C29.3013 64.1572 29.8081 64.7241 29.8169 65.8579V69H29.0039V65.8535C29.001 65.5107 28.9219 65.2573 28.7666 65.0933C28.6143 64.9292 28.3755 64.8472 28.0503 64.8472C27.7866 64.8472 27.5552 64.9175 27.356 65.0581C27.1567 65.1987 27.0015 65.3833 26.8901 65.6118V69H26.0771V62.25H26.8901V64.8208ZM30.8188 66.5786C30.8188 66.1128 30.9097 65.6938 31.0913 65.3218C31.2759 64.9497 31.5308 64.6626 31.856 64.4604C32.1841 64.2583 32.5576 64.1572 32.9766 64.1572C33.624 64.1572 34.147 64.3813 34.5454 64.8296C34.9468 65.2778 35.1475 65.874 35.1475 66.6182V66.6753C35.1475 67.1382 35.0581 67.5542 34.8794 67.9233C34.7036 68.2896 34.4502 68.5752 34.1191 68.7803C33.791 68.9854 33.4131 69.0879 32.9854 69.0879C32.3408 69.0879 31.8179 68.8638 31.4165 68.4155C31.0181 67.9673 30.8188 67.374 30.8188 66.6357V66.5786ZM31.6362 66.6753C31.6362 67.2026 31.7578 67.626 32.001 67.9453C32.2471 68.2646 32.5752 68.4243 32.9854 68.4243C33.3984 68.4243 33.7266 68.2632 33.9697 67.9409C34.2129 67.6157 34.3345 67.1616 34.3345 66.5786C34.3345 66.0571 34.21 65.6353 33.9609 65.313C33.7148 64.9878 33.3867 64.8252 32.9766 64.8252C32.5752 64.8252 32.2515 64.9849 32.0054 65.3042C31.7593 65.6235 31.6362 66.0806 31.6362 66.6753ZM38.4653 64.9746C38.3423 64.9541 38.209 64.9438 38.0654 64.9438C37.5322 64.9438 37.1704 65.1709 36.98 65.625V69H36.167V64.2451H36.958L36.9712 64.7944C37.2378 64.3696 37.6157 64.1572 38.105 64.1572C38.2632 64.1572 38.3833 64.1777 38.4653 64.2188V64.9746ZM5.44922 77.9697C5.37012 78.6465 5.11963 79.1694 4.69775 79.5386C4.27881 79.9048 3.7207 80.0879 3.02344 80.0879C2.26758 80.0879 1.66113 79.8169 1.2041 79.2749C0.75 78.7329 0.522949 78.0078 0.522949 77.0996V76.4844C0.522949 75.8896 0.628418 75.3667 0.839355 74.9155C1.05322 74.4644 1.35498 74.1187 1.74463 73.8784C2.13428 73.6353 2.58545 73.5137 3.09814 73.5137C3.77783 73.5137 4.32275 73.7041 4.73291 74.085C5.14307 74.4629 5.38184 74.9873 5.44922 75.6582H4.60107C4.52783 75.1484 4.36816 74.7793 4.12207 74.5508C3.87891 74.3223 3.5376 74.208 3.09814 74.208C2.55908 74.208 2.13574 74.4072 1.82812 74.8057C1.52344 75.2041 1.37109 75.771 1.37109 76.5063V77.126C1.37109 77.8203 1.51611 78.3726 1.80615 78.7827C2.09619 79.1929 2.50195 79.3979 3.02344 79.3979C3.49219 79.3979 3.85107 79.2925 4.1001 79.0815C4.35205 78.8677 4.51904 78.4971 4.60107 77.9697H5.44922ZM6.26221 77.5786C6.26221 77.1128 6.35303 76.6938 6.53467 76.3218C6.71924 75.9497 6.97412 75.6626 7.29932 75.4604C7.62744 75.2583 8.00098 75.1572 8.41992 75.1572C9.06738 75.1572 9.59033 75.3813 9.98877 75.8296C10.3901 76.2778 10.5908 76.874 10.5908 77.6182V77.6753C10.5908 78.1382 10.5015 78.5542 10.3228 78.9233C10.147 79.2896 9.89355 79.5752 9.5625 79.7803C9.23438 79.9854 8.85645 80.0879 8.42871 80.0879C7.78418 80.0879 7.26123 79.8638 6.85986 79.4155C6.46143 78.9673 6.26221 78.374 6.26221 77.6357V77.5786ZM7.07959 77.6753C7.07959 78.2026 7.20117 78.626 7.44434 78.9453C7.69043 79.2646 8.01855 79.4243 8.42871 79.4243C8.8418 79.4243 9.16992 79.2632 9.41309 78.9409C9.65625 78.6157 9.77783 78.1616 9.77783 77.5786C9.77783 77.0571 9.65332 76.6353 9.4043 76.313C9.1582 75.9878 8.83008 75.8252 8.41992 75.8252C8.01855 75.8252 7.69482 75.9849 7.44873 76.3042C7.20264 76.6235 7.07959 77.0806 7.07959 77.6753ZM14.5459 80C14.499 79.9062 14.4609 79.7393 14.4316 79.499C14.0537 79.8916 13.6025 80.0879 13.0781 80.0879C12.6094 80.0879 12.2241 79.9561 11.9224 79.6924C11.6235 79.4258 11.4741 79.0889 11.4741 78.6816C11.4741 78.1865 11.6616 77.8027 12.0366 77.5303C12.4146 77.2549 12.9448 77.1172 13.6274 77.1172H14.4185V76.7437C14.4185 76.4595 14.3335 76.2339 14.1636 76.0669C13.9937 75.897 13.7432 75.812 13.4121 75.812C13.1221 75.812 12.8789 75.8853 12.6826 76.0317C12.4863 76.1782 12.3882 76.3555 12.3882 76.5635H11.5708C11.5708 76.3262 11.6543 76.0977 11.8213 75.8779C11.9912 75.6553 12.2197 75.4795 12.5068 75.3506C12.7969 75.2217 13.1147 75.1572 13.4604 75.1572C14.0083 75.1572 14.4375 75.2949 14.748 75.5703C15.0586 75.8428 15.2197 76.2192 15.2314 76.6997V78.8882C15.2314 79.3247 15.2871 79.6719 15.3984 79.9297V80H14.5459ZM13.1968 79.3804C13.4517 79.3804 13.6934 79.3145 13.9219 79.1826C14.1504 79.0508 14.3159 78.8794 14.4185 78.6685V77.6929H13.7812C12.7852 77.6929 12.2871 77.9844 12.2871 78.5674C12.2871 78.8223 12.3721 79.0215 12.542 79.165C12.7119 79.3086 12.9302 79.3804 13.1968 79.3804ZM17.6089 74.0938V75.2451H18.4966V75.8735H17.6089V78.8223C17.6089 79.0127 17.6484 79.1562 17.7275 79.2529C17.8066 79.3467 17.9414 79.3936 18.1318 79.3936C18.2256 79.3936 18.3545 79.376 18.5186 79.3408V80C18.3047 80.0586 18.0967 80.0879 17.8945 80.0879C17.5312 80.0879 17.2573 79.978 17.0728 79.7583C16.8882 79.5386 16.7959 79.2266 16.7959 78.8223V75.8735H15.9302V75.2451H16.7959V74.0938H17.6089ZM20.3335 80H19.5205V75.2451H20.3335V80ZM19.4546 73.9839C19.4546 73.8521 19.4941 73.7407 19.5732 73.6499C19.6553 73.5591 19.7754 73.5137 19.9336 73.5137C20.0918 73.5137 20.2119 73.5591 20.2939 73.6499C20.376 73.7407 20.417 73.8521 20.417 73.9839C20.417 74.1157 20.376 74.2256 20.2939 74.3135C20.2119 74.4014 20.0918 74.4453 19.9336 74.4453C19.7754 74.4453 19.6553 74.4014 19.5732 74.3135C19.4941 74.2256 19.4546 74.1157 19.4546 73.9839ZM22.4077 75.2451L22.4341 75.8428C22.7974 75.3857 23.272 75.1572 23.8579 75.1572C24.8628 75.1572 25.3696 75.7241 25.3784 76.8579V80H24.5654V76.8535C24.5625 76.5107 24.4834 76.2573 24.3281 76.0933C24.1758 75.9292 23.937 75.8472 23.6118 75.8472C23.3481 75.8472 23.1167 75.9175 22.9175 76.0581C22.7183 76.1987 22.563 76.3833 22.4517 76.6118V80H21.6387V75.2451H22.4077ZM26.4111 77.583C26.4111 76.8418 26.5825 76.2529 26.9253 75.8164C27.2681 75.377 27.7222 75.1572 28.2876 75.1572C28.8677 75.1572 29.3203 75.3623 29.6455 75.7725L29.6851 75.2451H30.4277V79.8857C30.4277 80.501 30.2446 80.9858 29.8784 81.3403C29.5151 81.6948 29.0259 81.8721 28.4106 81.8721C28.0679 81.8721 27.7324 81.7988 27.4043 81.6523C27.0762 81.5059 26.8257 81.3052 26.6528 81.0503L27.0747 80.5625C27.4233 80.9932 27.8496 81.2085 28.3535 81.2085C28.749 81.2085 29.0566 81.0972 29.2764 80.8745C29.499 80.6519 29.6104 80.3384 29.6104 79.9341V79.5254C29.2852 79.9004 28.8413 80.0879 28.2788 80.0879C27.7222 80.0879 27.271 79.8638 26.9253 79.4155C26.5825 78.9673 26.4111 78.3564 26.4111 77.583ZM27.2285 77.6753C27.2285 78.2114 27.3384 78.6333 27.5581 78.9409C27.7778 79.2456 28.0854 79.3979 28.481 79.3979C28.9937 79.3979 29.3701 79.165 29.6104 78.6992V76.5283C29.3613 76.0742 28.9878 75.8472 28.4897 75.8472C28.0942 75.8472 27.7852 76.001 27.5625 76.3086C27.3398 76.6162 27.2285 77.0718 27.2285 77.6753Z" fill="black"/>
<path d="M44 73L44.1641 73.4724L44.1723 73.4694L44 73ZM48.3618 71.7815C48.4779 71.5311 48.3688 71.2339 48.1182 71.1176L44.0337 69.2228C43.783 69.1065 43.4857 69.2152 43.3697 69.4656C43.2536 69.716 43.3626 70.0132 43.6133 70.1295L47.2439 71.8138L45.5624 75.4406C45.4463 75.691 45.5554 75.9882 45.806 76.1045C46.0566 76.2208 46.3539 76.112 46.47 75.8617L48.3618 71.7815ZM31.1641 77.9723L44.1641 73.4723L43.8359 72.5277L30.8359 77.0277L31.1641 77.9723ZM44.1723 73.4694L48.0802 72.0404L47.7357 71.1015L43.8277 72.5306L44.1723 73.4694Z" fill="black"/>
<path d="M23.8325 100.602L25.9243 105.822L28.0161 100.602H29.1104V107H28.2666V104.508L28.3457 101.819L26.2451 107H25.5991L23.5029 101.832L23.5864 104.508V107H22.7427V100.602H23.8325ZM32.4458 107.088C31.8013 107.088 31.2769 106.877 30.8726 106.455C30.4683 106.03 30.2661 105.463 30.2661 104.754V104.605C30.2661 104.133 30.3555 103.713 30.5342 103.344C30.7158 102.972 30.9678 102.682 31.29 102.474C31.6152 102.263 31.9668 102.157 32.3447 102.157C32.9629 102.157 33.4434 102.361 33.7861 102.768C34.1289 103.175 34.3003 103.758 34.3003 104.517V104.855H31.0791C31.0908 105.324 31.2271 105.704 31.4878 105.994C31.7515 106.281 32.0854 106.424 32.4897 106.424C32.7769 106.424 33.02 106.366 33.2192 106.249C33.4185 106.131 33.5928 105.976 33.7422 105.783L34.2388 106.169C33.8403 106.782 33.2427 107.088 32.4458 107.088ZM32.3447 102.825C32.0166 102.825 31.7412 102.945 31.5186 103.186C31.2959 103.423 31.1582 103.757 31.1055 104.188H33.4873V104.126C33.4639 103.713 33.3525 103.394 33.1533 103.168C32.9541 102.939 32.6846 102.825 32.3447 102.825ZM37.5435 102.975C37.4204 102.954 37.2871 102.944 37.1436 102.944C36.6104 102.944 36.2485 103.171 36.0581 103.625V107H35.2451V102.245H36.0361L36.0493 102.794C36.3159 102.37 36.6938 102.157 37.1831 102.157C37.3413 102.157 37.4614 102.178 37.5435 102.219V102.975ZM40.1143 106.424C40.4043 106.424 40.6577 106.336 40.8745 106.161C41.0913 105.985 41.2114 105.765 41.2349 105.501H42.0039C41.9893 105.774 41.8955 106.033 41.7227 106.279C41.5498 106.525 41.3184 106.722 41.0283 106.868C40.7412 107.015 40.4365 107.088 40.1143 107.088C39.4668 107.088 38.9512 106.873 38.5674 106.442C38.1865 106.008 37.9961 105.417 37.9961 104.667V104.53C37.9961 104.067 38.0811 103.656 38.251 103.295C38.4209 102.935 38.6641 102.655 38.9805 102.456C39.2998 102.257 39.6763 102.157 40.1099 102.157C40.6431 102.157 41.0854 102.317 41.437 102.636C41.7915 102.956 41.9805 103.37 42.0039 103.88H41.2349C41.2114 103.572 41.0942 103.32 40.8833 103.124C40.6753 102.925 40.4175 102.825 40.1099 102.825C39.6968 102.825 39.376 102.975 39.1475 103.273C38.9219 103.569 38.8091 103.999 38.8091 104.561V104.715C38.8091 105.263 38.9219 105.685 39.1475 105.98C39.373 106.276 39.6953 106.424 40.1143 106.424ZM45.8535 106.53C45.5371 106.902 45.0728 107.088 44.4604 107.088C43.9536 107.088 43.5669 106.941 43.3003 106.648C43.0366 106.353 42.9033 105.916 42.9004 105.339V102.245H43.7134V105.317C43.7134 106.038 44.0063 106.398 44.5923 106.398C45.2134 106.398 45.6265 106.167 45.8315 105.704V102.245H46.6445V107H45.8711L45.8535 106.53ZM50.1821 102.975C50.0591 102.954 49.9258 102.944 49.7822 102.944C49.249 102.944 48.8872 103.171 48.6968 103.625V107H47.8838V102.245H48.6748L48.688 102.794C48.9546 102.37 49.3325 102.157 49.8218 102.157C49.98 102.157 50.1001 102.178 50.1821 102.219V102.975ZM52.5684 105.809L53.6758 102.245H54.5459L52.6343 107.734C52.3384 108.525 51.8682 108.92 51.2236 108.92L51.0698 108.907L50.7666 108.85V108.191L50.9863 108.208C51.2617 108.208 51.4756 108.153 51.6279 108.042C51.7832 107.93 51.9106 107.727 52.0103 107.431L52.1904 106.947L50.4941 102.245H51.3818L52.5684 105.809ZM24.8608 116.879L26.689 111.602H27.6118L25.2388 118H24.4917L22.123 111.602H23.0415L24.8608 116.879ZM31.0791 118C31.0322 117.906 30.9941 117.739 30.9648 117.499C30.5869 117.892 30.1357 118.088 29.6113 118.088C29.1426 118.088 28.7573 117.956 28.4556 117.692C28.1567 117.426 28.0073 117.089 28.0073 116.682C28.0073 116.187 28.1948 115.803 28.5698 115.53C28.9478 115.255 29.478 115.117 30.1606 115.117H30.9517V114.744C30.9517 114.459 30.8667 114.234 30.6968 114.067C30.5269 113.897 30.2764 113.812 29.9453 113.812C29.6553 113.812 29.4121 113.885 29.2158 114.032C29.0195 114.178 28.9214 114.355 28.9214 114.563H28.104C28.104 114.326 28.1875 114.098 28.3545 113.878C28.5244 113.655 28.7529 113.479 29.04 113.351C29.3301 113.222 29.6479 113.157 29.9937 113.157C30.5415 113.157 30.9707 113.295 31.2812 113.57C31.5918 113.843 31.7529 114.219 31.7646 114.7V116.888C31.7646 117.325 31.8203 117.672 31.9316 117.93V118H31.0791ZM29.73 117.38C29.9849 117.38 30.2266 117.314 30.4551 117.183C30.6836 117.051 30.8491 116.879 30.9517 116.668V115.693H30.3145C29.3184 115.693 28.8203 115.984 28.8203 116.567C28.8203 116.822 28.9053 117.021 29.0752 117.165C29.2451 117.309 29.4634 117.38 29.73 117.38ZM37.0557 115.675C37.0557 116.399 36.8901 116.982 36.5591 117.424C36.228 117.867 35.7798 118.088 35.2144 118.088C34.6372 118.088 34.1831 117.905 33.8521 117.539V119.828H33.0391V113.245H33.7817L33.8213 113.772C34.1523 113.362 34.6123 113.157 35.2012 113.157C35.7725 113.157 36.2236 113.373 36.5547 113.803C36.8887 114.234 37.0557 114.833 37.0557 115.601V115.675ZM36.2427 115.583C36.2427 115.047 36.1284 114.624 35.8999 114.313C35.6714 114.002 35.3579 113.847 34.9595 113.847C34.4673 113.847 34.0981 114.065 33.8521 114.502V116.774C34.0952 117.208 34.4673 117.424 34.9683 117.424C35.3579 117.424 35.667 117.271 35.8955 116.963C36.127 116.652 36.2427 116.192 36.2427 115.583ZM37.8774 115.579C37.8774 115.113 37.9683 114.694 38.1499 114.322C38.3345 113.95 38.5894 113.663 38.9146 113.46C39.2427 113.258 39.6162 113.157 40.0352 113.157C40.6826 113.157 41.2056 113.381 41.604 113.83C42.0054 114.278 42.2061 114.874 42.2061 115.618V115.675C42.2061 116.138 42.1167 116.554 41.938 116.923C41.7622 117.29 41.5088 117.575 41.1777 117.78C40.8496 117.985 40.4717 118.088 40.0439 118.088C39.3994 118.088 38.8765 117.864 38.4751 117.416C38.0767 116.967 37.8774 116.374 37.8774 115.636V115.579ZM38.6948 115.675C38.6948 116.203 38.8164 116.626 39.0596 116.945C39.3057 117.265 39.6338 117.424 40.0439 117.424C40.457 117.424 40.7852 117.263 41.0283 116.941C41.2715 116.616 41.3931 116.162 41.3931 115.579C41.3931 115.057 41.2686 114.635 41.0195 114.313C40.7734 113.988 40.4453 113.825 40.0352 113.825C39.6338 113.825 39.3101 113.985 39.064 114.304C38.8179 114.624 38.6948 115.081 38.6948 115.675ZM46.1611 117.53C45.8447 117.902 45.3804 118.088 44.7681 118.088C44.2612 118.088 43.8745 117.941 43.6079 117.648C43.3442 117.353 43.2109 116.916 43.208 116.339V113.245H44.021V116.317C44.021 117.038 44.314 117.398 44.8999 117.398C45.521 117.398 45.9341 117.167 46.1392 116.704V113.245H46.9521V118H46.1787L46.1611 117.53ZM50.4897 113.975C50.3667 113.954 50.2334 113.944 50.0898 113.944C49.5566 113.944 49.1948 114.171 49.0044 114.625V118H48.1914V113.245H48.9824L48.9956 113.794C49.2622 113.37 49.6401 113.157 50.1294 113.157C50.2876 113.157 50.4077 113.178 50.4897 113.219V113.975Z" fill="black"/>
<path d="M66.4994 96.0238C66.5126 95.748 66.2996 95.5137 66.0238 95.5006L61.5289 95.2865C61.253 95.2734 61.0188 95.4863 61.0057 95.7622C60.9925 96.038 61.2055 96.2723 61.4813 96.2854L65.4768 96.4757L65.2865 100.471C65.2734 100.747 65.4863 100.981 65.7622 100.994C66.038 101.007 66.2723 100.795 66.2854 100.519L66.4994 96.0238ZM55.3363 106.37L60.8363 101.37L60.1637 100.63L54.6637 105.63L55.3363 106.37ZM60.8363 101.37L66.3363 96.37L65.6637 95.63L60.1637 100.63L60.8363 101.37Z" fill="black"/>
</svg>
