<svg width="149" height="139" viewBox="0 0 149 139" fill="none" xmlns="http://www.w3.org/2000/svg">
<ellipse cx="74" cy="47" rx="40" ry="47" fill="#E8E6B2"/>
<rect x="56" y="61" width="37" height="51" fill="#E8E6B2"/>
<rect x="55" y="112" width="39" height="27" fill="#C4C4C4"/>
<rect x="69" y="69" width="10" height="43" fill="#E5E5E5"/>
<path d="M60 44.6841L61.8794 44L71.1139 69.3717L69.2345 70.0558L60 44.6841Z" fill="#C4C4C4"/>
<path d="M86.2346 44L88.114 44.684L78.8795 70.0557L77.0001 69.3717L86.2346 44Z" fill="#C4C4C4"/>
<path d="M57 45L59.75 46L62.5 45L64.5625 46L66.625 45L68.6875 46L70.75 45L72.8125 46L74.875 45L76.9375 46L79 45L81.0625 46L83.8125 45L85.875 46L87.9375 45L90 46" stroke="#FF0101"/>
<path d="M68 139V114.5L67 114L57 45.5L56 47.5" stroke="#60F21B"/>
<circle cx="58" cy="55" r="2" fill="#FAFF00"/>
<path d="M57 55H59" stroke="black" stroke-width="0.5"/>
<circle cx="57" cy="50" r="2" fill="#FAFF00"/>
<path d="M56 50H58" stroke="black" stroke-width="0.5"/>
<circle cx="60" cy="65" r="2" fill="#FAFF00"/>
<path d="M59 65H61" stroke="black" stroke-width="0.5"/>
<circle cx="59" cy="60" r="2" fill="#FAFF00"/>
<path d="M58 60H60" stroke="black" stroke-width="0.5"/>
<line x1="59.4239" y1="42.2046" x2="56.9239" y2="37.8745" stroke="#FF0000"/>
<path d="M56.1904 36.6873L57.9713 37.3911L55.9095 38.5815L56.1904 36.6873Z" fill="#FF0000"/>
<line x1="89.0684" y1="41.991" x2="91.4878" y2="37.6153" stroke="#FF0000"/>
<path d="M92.1262 36.3741L92.4422 38.2628L90.3587 37.1108L92.1262 36.3741Z" fill="#FF0000"/>
<line x1="76.0591" y1="37.5492" x2="76.91" y2="32.6221" stroke="#FF0000"/>
<path d="M77.1063 31.2408L78.024 32.9215L75.678 32.5163L77.1063 31.2408Z" fill="#FF0000"/>
<line x1="72.3132" y1="37.5182" x2="71.511" y2="32.583" stroke="#FF0000"/>
<path d="M71.2461 31.2126L72.6617 32.5021L70.3118 32.8841L71.2461 31.2126Z" fill="#FF0000"/>
<line x1="67.7656" y1="38.401" x2="66.3629" y2="33.6018" stroke="#FF0000"/>
<path d="M65.9316 32.2746L67.495 33.3804L65.2098 34.0483L65.9316 32.2746Z" fill="#FF0000"/>
<line x1="85.3974" y1="40.3943" x2="87.1138" y2="35.6981" stroke="#FF0000"/>
<path d="M87.5535 34.3737L88.1566 36.1911L85.9205 35.3739L87.5535 34.3737Z" fill="#FF0000"/>
<line x1="63.0922" y1="40.2775" x2="61.2545" y2="35.6275" stroke="#FF0000"/>
<path d="M60.703 34.3459L62.3614 35.3034L60.1473 36.1784L60.703 34.3459Z" fill="#FF0000"/>
<line x1="80.576" y1="38.0913" x2="81.9043" y2="33.271" stroke="#FF0000"/>
<path d="M82.1299 32.2958L82.879 34.0582L80.5838 33.4257L82.1299 32.2958Z" fill="#FF0000"/>
<path d="M94 125.39C89.5062 126.697 80.4148 126.763 80 116.569L81.5556 115.099L90.3704 46L91.3077 48" stroke="#0358FC"/>
<path d="M60.4785 83.855C60.3986 83.5906 60.1195 83.4411 59.8552 83.5211L55.5478 84.8234C55.2834 84.9033 55.1339 85.1824 55.2139 85.4467C55.2938 85.711 55.5728 85.8605 55.8372 85.7806L59.666 84.623L60.8236 88.4518C60.9035 88.7161 61.1826 88.8656 61.4469 88.7857C61.7112 88.7058 61.8607 88.4267 61.7808 88.1624L60.4785 83.855ZM52.9407 98.2361L60.4406 84.2358L59.5591 83.7636L52.0593 97.7639L52.9407 98.2361Z" fill="black"/>
<path d="M83.4556 86.2062C83.5694 85.9546 83.4578 85.6584 83.2062 85.5445L79.1062 83.6898C78.8546 83.576 78.5584 83.6876 78.4445 83.9392C78.3307 84.1908 78.4424 84.4871 78.694 84.6009L82.3384 86.2496L80.6898 89.894C80.5759 90.1456 80.6876 90.4418 80.9392 90.5556C81.1908 90.6694 81.487 90.5578 81.6009 90.3062L83.4556 86.2062ZM52.6764 97.9678L83.1765 86.4679L82.8237 85.5322L52.3236 97.0322L52.6764 97.9678Z" fill="black"/>
<path d="M33.1226 101.983L33.2456 102.827L33.4258 102.066L34.6914 97.6016H35.4033L36.6382 102.066L36.814 102.84L36.9502 101.979L37.9434 97.6016H38.7915L37.2402 104H36.4712L35.1528 99.3374L35.0518 98.8496L34.9507 99.3374L33.584 104H32.8149L31.2681 97.6016H32.1118L33.1226 101.983ZM40.4878 104H39.6748V99.2451H40.4878V104ZM39.6089 97.9839C39.6089 97.8521 39.6484 97.7407 39.7275 97.6499C39.8096 97.5591 39.9297 97.5137 40.0879 97.5137C40.2461 97.5137 40.3662 97.5591 40.4482 97.6499C40.5303 97.7407 40.5713 97.8521 40.5713 97.9839C40.5713 98.1157 40.5303 98.2256 40.4482 98.3135C40.3662 98.4014 40.2461 98.4453 40.0879 98.4453C39.9297 98.4453 39.8096 98.4014 39.7275 98.3135C39.6484 98.2256 39.6089 98.1157 39.6089 97.9839ZM44.0913 99.9746C43.9683 99.9541 43.835 99.9438 43.6914 99.9438C43.1582 99.9438 42.7964 100.171 42.606 100.625V104H41.793V99.2451H42.584L42.5972 99.7944C42.8638 99.3696 43.2417 99.1572 43.731 99.1572C43.8892 99.1572 44.0093 99.1777 44.0913 99.2188V99.9746ZM46.728 104.088C46.0835 104.088 45.5591 103.877 45.1548 103.455C44.7505 103.03 44.5483 102.463 44.5483 101.754V101.605C44.5483 101.133 44.6377 100.713 44.8164 100.344C44.998 99.9717 45.25 99.6816 45.5723 99.4736C45.8975 99.2627 46.249 99.1572 46.627 99.1572C47.2451 99.1572 47.7256 99.3608 48.0684 99.7681C48.4111 100.175 48.5825 100.758 48.5825 101.517V101.855H45.3613C45.373 102.324 45.5093 102.704 45.77 102.994C46.0337 103.281 46.3677 103.424 46.772 103.424C47.0591 103.424 47.3022 103.366 47.5015 103.249C47.7007 103.131 47.875 102.976 48.0244 102.783L48.521 103.169C48.1226 103.782 47.5249 104.088 46.728 104.088ZM46.627 99.8252C46.2988 99.8252 46.0234 99.9453 45.8008 100.186C45.5781 100.423 45.4404 100.757 45.3877 101.188H47.7695V101.126C47.7461 100.713 47.6348 100.394 47.4355 100.168C47.2363 99.9395 46.9668 99.8252 46.627 99.8252ZM52.2959 102.739C52.2959 102.519 52.2124 102.349 52.0454 102.229C51.8813 102.106 51.5928 102 51.1797 101.913C50.7695 101.825 50.4429 101.719 50.1997 101.596C49.9595 101.473 49.7808 101.327 49.6636 101.157C49.5493 100.987 49.4922 100.785 49.4922 100.55C49.4922 100.161 49.6562 99.8311 49.9844 99.5615C50.3154 99.292 50.7373 99.1572 51.25 99.1572C51.7891 99.1572 52.2256 99.2964 52.5596 99.5747C52.8965 99.853 53.0649 100.209 53.0649 100.643H52.2476C52.2476 100.42 52.1523 100.228 51.9619 100.067C51.7744 99.9058 51.5371 99.8252 51.25 99.8252C50.9541 99.8252 50.7227 99.8896 50.5557 100.019C50.3887 100.147 50.3052 100.316 50.3052 100.524C50.3052 100.72 50.3828 100.868 50.5381 100.968C50.6934 101.067 50.9731 101.163 51.3774 101.253C51.7847 101.344 52.1143 101.453 52.3662 101.579C52.6182 101.705 52.8042 101.857 52.9243 102.036C53.0474 102.211 53.1089 102.427 53.1089 102.682C53.1089 103.106 52.939 103.448 52.5991 103.706C52.2593 103.96 51.8184 104.088 51.2764 104.088C50.8955 104.088 50.5586 104.021 50.2656 103.886C49.9727 103.751 49.7427 103.563 49.5757 103.323C49.4116 103.08 49.3296 102.818 49.3296 102.537H50.1426C50.1572 102.809 50.2656 103.026 50.4678 103.187C50.6729 103.345 50.9424 103.424 51.2764 103.424C51.584 103.424 51.8301 103.363 52.0146 103.24C52.2021 103.114 52.2959 102.947 52.2959 102.739Z" fill="black"/>
<path d="M16.5908 29.3101H19.623V30H15.7427V23.6016H16.5908V29.3101ZM21.3413 30H20.5283V25.2451H21.3413V30ZM20.4624 23.9839C20.4624 23.8521 20.502 23.7407 20.5811 23.6499C20.6631 23.5591 20.7832 23.5137 20.9414 23.5137C21.0996 23.5137 21.2197 23.5591 21.3018 23.6499C21.3838 23.7407 21.4248 23.8521 21.4248 23.9839C21.4248 24.1157 21.3838 24.2256 21.3018 24.3135C21.2197 24.4014 21.0996 24.4453 20.9414 24.4453C20.7832 24.4453 20.6631 24.4014 20.5811 24.3135C20.502 24.2256 20.4624 24.1157 20.4624 23.9839ZM22.4531 27.583C22.4531 26.8418 22.6245 26.2529 22.9673 25.8164C23.3101 25.377 23.7642 25.1572 24.3296 25.1572C24.9097 25.1572 25.3623 25.3623 25.6875 25.7725L25.7271 25.2451H26.4697V29.8857C26.4697 30.501 26.2866 30.9858 25.9204 31.3403C25.5571 31.6948 25.0679 31.8721 24.4526 31.8721C24.1099 31.8721 23.7744 31.7988 23.4463 31.6523C23.1182 31.5059 22.8677 31.3052 22.6948 31.0503L23.1167 30.5625C23.4653 30.9932 23.8916 31.2085 24.3955 31.2085C24.791 31.2085 25.0986 31.0972 25.3184 30.8745C25.541 30.6519 25.6523 30.3384 25.6523 29.9341V29.5254C25.3271 29.9004 24.8833 30.0879 24.3208 30.0879C23.7642 30.0879 23.313 29.8638 22.9673 29.4155C22.6245 28.9673 22.4531 28.3564 22.4531 27.583ZM23.2705 27.6753C23.2705 28.2114 23.3804 28.6333 23.6001 28.9409C23.8198 29.2456 24.1274 29.3979 24.5229 29.3979C25.0356 29.3979 25.4121 29.165 25.6523 28.6992V26.5283C25.4033 26.0742 25.0298 25.8472 24.5317 25.8472C24.1362 25.8472 23.8271 26.001 23.6045 26.3086C23.3818 26.6162 23.2705 27.0718 23.2705 27.6753ZM28.5132 25.8208C28.8735 25.3784 29.3423 25.1572 29.9194 25.1572C30.9243 25.1572 31.4312 25.7241 31.4399 26.8579V30H30.627V26.8535C30.624 26.5107 30.5449 26.2573 30.3896 26.0933C30.2373 25.9292 29.9985 25.8472 29.6733 25.8472C29.4097 25.8472 29.1782 25.9175 28.979 26.0581C28.7798 26.1987 28.6245 26.3833 28.5132 26.6118V30H27.7002V23.25H28.5132V25.8208ZM33.7603 24.0938V25.2451H34.6479V25.8735H33.7603V28.8223C33.7603 29.0127 33.7998 29.1562 33.8789 29.2529C33.958 29.3467 34.0928 29.3936 34.2832 29.3936C34.377 29.3936 34.5059 29.376 34.6699 29.3408V30C34.4561 30.0586 34.248 30.0879 34.0459 30.0879C33.6826 30.0879 33.4087 29.978 33.2241 29.7583C33.0396 29.5386 32.9473 29.2266 32.9473 28.8223V25.8735H32.0815V25.2451H32.9473V24.0938H33.7603Z" fill="black"/>
<path d="M6.66016 54H5.81201V51.0425H2.58643V54H1.74268V47.6016H2.58643V50.3525H5.81201V47.6016H6.66016V54ZM10.0044 54.0879C9.35986 54.0879 8.83545 53.877 8.43115 53.4551C8.02686 53.0303 7.82471 52.4634 7.82471 51.7544V51.605C7.82471 51.1333 7.91406 50.7129 8.09277 50.3438C8.27441 49.9717 8.52637 49.6816 8.84863 49.4736C9.17383 49.2627 9.52539 49.1572 9.90332 49.1572C10.5215 49.1572 11.002 49.3608 11.3447 49.7681C11.6875 50.1753 11.8589 50.7583 11.8589 51.5171V51.8555H8.6377C8.64941 52.3242 8.78564 52.7036 9.04639 52.9937C9.31006 53.2808 9.64404 53.4243 10.0483 53.4243C10.3354 53.4243 10.5786 53.3657 10.7778 53.2485C10.9771 53.1313 11.1514 52.9761 11.3008 52.7827L11.7974 53.1694C11.3989 53.7817 10.8013 54.0879 10.0044 54.0879ZM9.90332 49.8252C9.5752 49.8252 9.2998 49.9453 9.07715 50.1855C8.85449 50.4229 8.7168 50.7568 8.66406 51.1875H11.0459V51.126C11.0225 50.7129 10.9111 50.3936 10.7119 50.168C10.5127 49.9395 10.2432 49.8252 9.90332 49.8252ZM15.7393 54C15.6924 53.9062 15.6543 53.7393 15.625 53.499C15.2471 53.8916 14.7959 54.0879 14.2715 54.0879C13.8027 54.0879 13.4175 53.9561 13.1157 53.6924C12.8169 53.4258 12.6675 53.0889 12.6675 52.6816C12.6675 52.1865 12.855 51.8027 13.23 51.5303C13.6079 51.2549 14.1382 51.1172 14.8208 51.1172H15.6118V50.7437C15.6118 50.4595 15.5269 50.2339 15.3569 50.0669C15.187 49.897 14.9365 49.812 14.6055 49.812C14.3154 49.812 14.0723 49.8853 13.876 50.0317C13.6797 50.1782 13.5815 50.3555 13.5815 50.5635H12.7642C12.7642 50.3262 12.8477 50.0977 13.0146 49.8779C13.1846 49.6553 13.4131 49.4795 13.7002 49.3506C13.9902 49.2217 14.3081 49.1572 14.6538 49.1572C15.2017 49.1572 15.6309 49.2949 15.9414 49.5703C16.252 49.8428 16.4131 50.2192 16.4248 50.6997V52.8882C16.4248 53.3247 16.4805 53.6719 16.5918 53.9297V54H15.7393ZM14.3901 53.3804C14.645 53.3804 14.8867 53.3145 15.1152 53.1826C15.3438 53.0508 15.5093 52.8794 15.6118 52.6685V51.6929H14.9746C13.9785 51.6929 13.4805 51.9844 13.4805 52.5674C13.4805 52.8223 13.5654 53.0215 13.7354 53.165C13.9053 53.3086 14.1235 53.3804 14.3901 53.3804ZM18.8022 48.0938V49.2451H19.6899V49.8735H18.8022V52.8223C18.8022 53.0127 18.8418 53.1562 18.9209 53.2529C19 53.3467 19.1348 53.3936 19.3252 53.3936C19.4189 53.3936 19.5479 53.376 19.7119 53.3408V54C19.498 54.0586 19.29 54.0879 19.0879 54.0879C18.7246 54.0879 18.4507 53.978 18.2661 53.7583C18.0815 53.5386 17.9893 53.2266 17.9893 52.8223V49.8735H17.1235V49.2451H17.9893V48.0938H18.8022ZM22.6167 54.0879C21.9722 54.0879 21.4478 53.877 21.0435 53.4551C20.6392 53.0303 20.437 52.4634 20.437 51.7544V51.605C20.437 51.1333 20.5264 50.7129 20.7051 50.3438C20.8867 49.9717 21.1387 49.6816 21.4609 49.4736C21.7861 49.2627 22.1377 49.1572 22.5156 49.1572C23.1338 49.1572 23.6143 49.3608 23.957 49.7681C24.2998 50.1753 24.4712 50.7583 24.4712 51.5171V51.8555H21.25C21.2617 52.3242 21.3979 52.7036 21.6587 52.9937C21.9224 53.2808 22.2563 53.4243 22.6606 53.4243C22.9478 53.4243 23.1909 53.3657 23.3901 53.2485C23.5894 53.1313 23.7637 52.9761 23.9131 52.7827L24.4097 53.1694C24.0112 53.7817 23.4136 54.0879 22.6167 54.0879ZM22.5156 49.8252C22.1875 49.8252 21.9121 49.9453 21.6895 50.1855C21.4668 50.4229 21.3291 50.7568 21.2764 51.1875H23.6582V51.126C23.6348 50.7129 23.5234 50.3936 23.3242 50.168C23.125 49.9395 22.8555 49.8252 22.5156 49.8252ZM25.2183 51.583C25.2183 50.8535 25.3911 50.2676 25.7368 49.8252C26.0825 49.3799 26.5352 49.1572 27.0947 49.1572C27.6514 49.1572 28.0923 49.3477 28.4175 49.7285V47.25H29.2305V54H28.4834L28.4438 53.4902C28.1187 53.8887 27.666 54.0879 27.0859 54.0879C26.5352 54.0879 26.0854 53.8623 25.7368 53.4111C25.3911 52.96 25.2183 52.3711 25.2183 51.6445V51.583ZM26.0312 51.6753C26.0312 52.2144 26.1426 52.6362 26.3652 52.9409C26.5879 53.2456 26.8955 53.3979 27.2881 53.3979C27.8037 53.3979 28.1802 53.1665 28.4175 52.7036V50.5195C28.1743 50.0713 27.8008 49.8472 27.2969 49.8472C26.8984 49.8472 26.5879 50.001 26.3652 50.3086C26.1426 50.6162 26.0312 51.0718 26.0312 51.6753ZM5.27148 62.1743H2.58643V65H1.74268V58.6016H5.70654V59.2959H2.58643V61.4844H5.27148V62.1743ZM7.47314 65H6.66016V60.2451H7.47314V65ZM6.59424 58.9839C6.59424 58.8521 6.63379 58.7407 6.71289 58.6499C6.79492 58.5591 6.91504 58.5137 7.07324 58.5137C7.23145 58.5137 7.35156 58.5591 7.43359 58.6499C7.51562 58.7407 7.55664 58.8521 7.55664 58.9839C7.55664 59.1157 7.51562 59.2256 7.43359 59.3135C7.35156 59.4014 7.23145 59.4453 7.07324 59.4453C6.91504 59.4453 6.79492 59.4014 6.71289 59.3135C6.63379 59.2256 6.59424 59.1157 6.59424 58.9839ZM9.66162 65H8.84863V58.25H9.66162V65ZM13.9023 65C13.8555 64.9062 13.8174 64.7393 13.7881 64.499C13.4102 64.8916 12.959 65.0879 12.4346 65.0879C11.9658 65.0879 11.5806 64.9561 11.2788 64.6924C10.98 64.4258 10.8306 64.0889 10.8306 63.6816C10.8306 63.1865 11.0181 62.8027 11.3931 62.5303C11.771 62.2549 12.3013 62.1172 12.9839 62.1172H13.7749V61.7437C13.7749 61.4595 13.6899 61.2339 13.52 61.0669C13.3501 60.897 13.0996 60.812 12.7686 60.812C12.4785 60.812 12.2354 60.8853 12.0391 61.0317C11.8428 61.1782 11.7446 61.3555 11.7446 61.5635H10.9272C10.9272 61.3262 11.0107 61.0977 11.1777 60.8779C11.3477 60.6553 11.5762 60.4795 11.8633 60.3506C12.1533 60.2217 12.4712 60.1572 12.8169 60.1572C13.3647 60.1572 13.7939 60.2949 14.1045 60.5703C14.415 60.8428 14.5762 61.2192 14.5879 61.6997V63.8882C14.5879 64.3247 14.6436 64.6719 14.7549 64.9297V65H13.9023ZM12.5532 64.3804C12.8081 64.3804 13.0498 64.3145 13.2783 64.1826C13.5068 64.0508 13.6724 63.8794 13.7749 63.6685V62.6929H13.1377C12.1416 62.6929 11.6436 62.9844 11.6436 63.5674C11.6436 63.8223 11.7285 64.0215 11.8984 64.165C12.0684 64.3086 12.2866 64.3804 12.5532 64.3804ZM16.627 60.2451L16.6489 60.7725C16.9976 60.3623 17.4678 60.1572 18.0596 60.1572C18.7246 60.1572 19.1772 60.4121 19.4175 60.9219C19.5757 60.6934 19.7808 60.5088 20.0327 60.3682C20.2876 60.2275 20.5879 60.1572 20.9336 60.1572C21.9766 60.1572 22.5068 60.7095 22.5244 61.814V65H21.7114V61.8623C21.7114 61.5225 21.6338 61.269 21.4785 61.1021C21.3232 60.9321 21.0625 60.8472 20.6963 60.8472C20.3945 60.8472 20.144 60.938 19.9448 61.1196C19.7456 61.2983 19.6299 61.54 19.5977 61.8447V65H18.7803V61.8843C18.7803 61.1929 18.4419 60.8472 17.7651 60.8472C17.2319 60.8472 16.8672 61.0742 16.6709 61.5283V65H15.8579V60.2451H16.627ZM25.728 65.0879C25.0835 65.0879 24.5591 64.877 24.1548 64.4551C23.7505 64.0303 23.5483 63.4634 23.5483 62.7544V62.605C23.5483 62.1333 23.6377 61.7129 23.8164 61.3438C23.998 60.9717 24.25 60.6816 24.5723 60.4736C24.8975 60.2627 25.249 60.1572 25.627 60.1572C26.2451 60.1572 26.7256 60.3608 27.0684 60.7681C27.4111 61.1753 27.5825 61.7583 27.5825 62.5171V62.8555H24.3613C24.373 63.3242 24.5093 63.7036 24.77 63.9937C25.0337 64.2808 25.3677 64.4243 25.772 64.4243C26.0591 64.4243 26.3022 64.3657 26.5015 64.2485C26.7007 64.1313 26.875 63.9761 27.0244 63.7827L27.521 64.1694C27.1226 64.7817 26.5249 65.0879 25.728 65.0879ZM25.627 60.8252C25.2988 60.8252 25.0234 60.9453 24.8008 61.1855C24.5781 61.4229 24.4404 61.7568 24.3877 62.1875H26.7695V62.126C26.7461 61.7129 26.6348 61.3936 26.4355 61.168C26.2363 60.9395 25.9668 60.8252 25.627 60.8252ZM29.2964 60.2451L29.3228 60.8428C29.686 60.3857 30.1606 60.1572 30.7466 60.1572C31.7515 60.1572 32.2583 60.7241 32.2671 61.8579V65H31.4541V61.8535C31.4512 61.5107 31.3721 61.2573 31.2168 61.0933C31.0645 60.9292 30.8257 60.8472 30.5005 60.8472C30.2368 60.8472 30.0054 60.9175 29.8062 61.0581C29.6069 61.1987 29.4517 61.3833 29.3403 61.6118V65H28.5273V60.2451H29.2964ZM34.5962 59.0938V60.2451H35.4839V60.8735H34.5962V63.8223C34.5962 64.0127 34.6357 64.1562 34.7148 64.2529C34.7939 64.3467 34.9287 64.3936 35.1191 64.3936C35.2129 64.3936 35.3418 64.376 35.5059 64.3408V65C35.292 65.0586 35.084 65.0879 34.8818 65.0879C34.5186 65.0879 34.2446 64.978 34.0601 64.7583C33.8755 64.5386 33.7832 64.2266 33.7832 63.8223V60.8735H32.9175V60.2451H33.7832V59.0938H34.5962Z" fill="black"/>
<path d="M54.1581 37.4743C54.4201 37.387 54.5617 37.1039 54.4743 36.8419L53.0513 32.5728C52.964 32.3108 52.6808 32.1693 52.4189 32.2566C52.1569 32.3439 52.0153 32.6271 52.1026 32.889L53.3675 36.6838L49.5728 37.9487C49.3108 38.036 49.1693 38.3192 49.2566 38.5811C49.3439 38.8431 49.6271 38.9847 49.889 38.8974L54.1581 37.4743ZM35.7764 28.4472L53.7764 37.4472L54.2236 36.5528L36.2236 27.5528L35.7764 28.4472Z" fill="black"/>
<path d="M60.4426 46.2332C60.5712 45.9888 60.4773 45.6865 60.233 45.5578L56.2509 43.4619C56.0065 43.3333 55.7041 43.4272 55.5755 43.6715C55.4469 43.9159 55.5407 44.2182 55.7851 44.3469L59.3248 46.2099L57.4617 49.7495C57.3331 49.9939 57.427 50.2962 57.6713 50.4249C57.9157 50.5535 58.218 50.4596 58.3467 50.2153L60.4426 46.2332ZM31.1482 55.4775L60.1483 46.4778L59.8519 45.5228L30.8518 54.5225L31.1482 55.4775Z" fill="black"/>
</svg>
