<svg width="363" height="214" viewBox="0 0 363 214" fill="none" xmlns="http://www.w3.org/2000/svg">
<rect x="111" y="165.5" width="60" height="48" fill="#FBB910"/>
<rect x="171" y="165.5" width="123" height="48" fill="#3B3838"/>
<line x1="141.5" y1="180.5" x2="141.5" y2="197.5" stroke="white"/>
<line x1="133" y1="189" x2="150" y2="189" stroke="white"/>
<line x1="255" y1="189" x2="272" y2="189" stroke="white"/>
<path d="M111 191.5H100.5V132.5H185" stroke="black"/>
<path d="M294 191H302.5V132.5H219.5" stroke="black"/>
<path d="M185 136.5C185 140.876 186.791 145.073 189.979 148.167C193.167 151.262 197.491 153 202 153C206.509 153 210.833 151.262 214.021 148.167C217.209 145.073 219 140.876 219 136.5L202 136.5L185 136.5Z" fill="#C4C4C4"/>
<path d="M185 129.5C185 125.124 186.791 120.927 189.979 117.833C193.167 114.738 197.491 113 202 113C206.509 113 210.833 114.738 214.021 117.833C217.209 120.927 219 125.124 219 129.5L202 129.5L185 129.5Z" fill="#C4C4C4"/>
<path d="M96.5 164L100.5 160L104 164" stroke="black"/>
<path d="M306.5 160L302.5 164L299 160" stroke="black"/>
<rect y="31" width="100" height="35" fill="#C4C4C4"/>
<rect x="65" y="31" width="35" height="35" fill="#1296F5"/>
<path d="M82.4889 54.608C81.5529 54.608 80.6529 54.458 79.7889 54.158C78.9369 53.858 78.2769 53.462 77.8089 52.97L78.3309 51.944C78.7869 52.4 79.3929 52.772 80.1489 53.06C80.9049 53.336 81.6849 53.474 82.4889 53.474C83.6169 53.474 84.4629 53.27 85.0269 52.862C85.5909 52.442 85.8729 51.902 85.8729 51.242C85.8729 50.738 85.7169 50.336 85.4049 50.036C85.1049 49.736 84.7329 49.508 84.2889 49.352C83.8449 49.184 83.2269 49.004 82.4349 48.812C81.4869 48.572 80.7309 48.344 80.1669 48.128C79.6029 47.9 79.1169 47.558 78.7089 47.102C78.3129 46.646 78.1149 46.028 78.1149 45.248C78.1149 44.612 78.2829 44.036 78.6189 43.52C78.9549 42.992 79.4709 42.572 80.1669 42.26C80.8629 41.948 81.7269 41.792 82.7589 41.792C83.4789 41.792 84.1809 41.894 84.8649 42.098C85.5609 42.29 86.1609 42.56 86.6649 42.908L86.2149 43.97C85.6869 43.622 85.1229 43.364 84.5229 43.196C83.9229 43.016 83.3349 42.926 82.7589 42.926C81.6549 42.926 80.8209 43.142 80.2569 43.574C79.7049 43.994 79.4289 44.54 79.4289 45.212C79.4289 45.716 79.5789 46.124 79.8789 46.436C80.1909 46.736 80.5749 46.97 81.0309 47.138C81.4989 47.294 82.1229 47.468 82.9029 47.66C83.8269 47.888 84.5709 48.116 85.1349 48.344C85.7109 48.56 86.1969 48.896 86.5929 49.352C86.9889 49.796 87.1869 50.402 87.1869 51.17C87.1869 51.806 87.0129 52.388 86.6649 52.916C86.3289 53.432 85.8069 53.846 85.0989 54.158C84.3909 54.458 83.5209 54.608 82.4889 54.608Z" fill="white"/>
<rect x="263" y="34" width="100" height="35" fill="#C4C4C4"/>
<rect x="263" y="34" width="35" height="35" fill="#E13535"/>
<path d="M285.761 43.9V56.5H284.663L276.563 46.276V56.5H275.231V43.9H276.329L284.447 54.124V43.9H285.761Z" fill="white"/>
<line x1="100.003" y1="43.5" x2="263.003" y2="44.5126" stroke="url(#paint0_linear)"/>
<line x1="100.003" y1="51.5" x2="263.003" y2="52.5126" stroke="url(#paint1_linear)"/>
<line x1="100.003" y1="59.5" x2="263.003" y2="60.5126" stroke="url(#paint2_linear)"/>
<path d="M183.5 41.5L180.5 44L183.5 46.5" stroke="#FA0E13" stroke-opacity="0.52"/>
<path d="M184 49L181 51.5L184 54" stroke="#FA0E13" stroke-opacity="0.52"/>
<path d="M184 57L181 59.5L184 62" stroke="#FA0E13" stroke-opacity="0.52"/>
<path d="M202.5 141L163 90.5V129L140.5 90.5L142.5 2L163 36.5V71.5L204.5 127" stroke="black"/>
<defs>
<linearGradient id="paint0_linear" x1="181.5" y1="44.5063" x2="181.494" y2="45.5063" gradientUnits="userSpaceOnUse">
<stop stop-color="#FA0E13" stop-opacity="0.52"/>
<stop offset="0.0001" stop-color="#EF1717"/>
<stop offset="0.9999" stop-color="#0D53DE" stop-opacity="0.263915"/>
<stop offset="1" stop-color="#168FE7" stop-opacity="0"/>
</linearGradient>
<linearGradient id="paint1_linear" x1="181.5" y1="52.5063" x2="181.494" y2="53.5063" gradientUnits="userSpaceOnUse">
<stop stop-color="#FA0E13" stop-opacity="0.52"/>
<stop offset="0.0001" stop-color="#EF1717"/>
<stop offset="0.9999" stop-color="#0D53DE" stop-opacity="0.263915"/>
<stop offset="1" stop-color="#168FE7" stop-opacity="0"/>
</linearGradient>
<linearGradient id="paint2_linear" x1="181.5" y1="60.5063" x2="181.494" y2="61.5063" gradientUnits="userSpaceOnUse">
<stop stop-color="#FA0E13" stop-opacity="0.52"/>
<stop offset="0.0001" stop-color="#EF1717"/>
<stop offset="0.9999" stop-color="#0D53DE" stop-opacity="0.263915"/>
<stop offset="1" stop-color="#168FE7" stop-opacity="0"/>
</linearGradient>
</defs>
</svg>
